<?xml version="1.0" encoding="utf-8"?>
<!-- Generator: Adobe Illustrator 16.0.0, SVG Export Plug-In . SVG Version: 6.00 Build 0)  -->
<!DOCTYPE svg PUBLIC "-//W3C//DTD SVG 1.1//EN" "http://www.w3.org/Graphics/SVG/1.1/DTD/svg11.dtd">
<svg version="1.1" id="Layer_1" xmlns="http://www.w3.org/2000/svg" xmlns:xlink="http://www.w3.org/1999/xlink" x="0px" y="0px"
	 width="103.116px" height="103.125px" viewBox="0 0 103.116 103.125" enable-background="new 0 0 103.116 103.125"
	 xml:space="preserve">
<g>
	<defs>
		<path id="SVGID_1_" d="M0.001,51.544c0-15.18,0-30.358,0.004-45.538c0-3.054,1.323-5.059,3.854-5.759
			C4.505,0.068,5.21,0.045,5.888,0.045C36.315,0.036,66.747,0.064,97.175,0c3.42-0.01,5.951,2.444,5.941,5.996
			c-0.073,30.396-0.036,60.791-0.045,91.188c0,3.043-1.328,5.012-3.9,5.735c-0.577,0.16-1.209,0.179-1.812,0.183
			c-8.203,0.01-16.402-0.009-24.601,0.023c-0.961,0.004-1.305-0.225-1.3-1.26c0.032-12.445,0.027-24.889,0-37.34
			c0-0.947,0.274-1.23,1.222-1.217c3.667,0.051,7.338-0.01,11.005,0.041c0.856,0.014,1.24-0.256,1.341-1.076
			c0.439-3.598,0.897-7.187,1.347-10.779c0.123-0.957,0.233-1.918,0.397-2.871c0.151-0.874-0.104-1.24-1.048-1.236
			c-4.321,0.037-8.634-0.018-12.955,0.037c-1.062,0.014-1.332-0.334-1.309-1.35c0.06-3.096,0.009-6.189,0.027-9.279
			c0.027-4.134,2.261-6.408,6.399-6.482c2.77-0.045,5.539-0.041,8.309,0c0.915,0.014,1.277-0.247,1.268-1.213
			c-0.046-4.033-0.036-8.061-0.009-12.085c0.009-0.81-0.22-1.153-1.09-1.172c-4.77-0.101-9.567-0.673-14.291-0.298
			c-9.022,0.724-15.285,6.418-16.672,15.326c-0.567,3.625-0.375,7.37-0.494,11.064c-0.046,1.474-0.041,2.947,0.009,4.422
			c0.027,0.801-0.252,1.066-1.053,1.058c-3.703-0.032-7.406-0.015-11.114-0.015c-1.41,0.006-1.419,0.023-1.419,1.475
			c-0.01,4.316-0.005,8.633-0.005,12.95c0.005,1.501,0.005,1.501,1.46,1.501c3.672,0.005,7.343,0.023,11.005-0.014
			c0.833-0.009,1.126,0.221,1.126,1.095c-0.022,12.52-0.022,25.035,0,37.55c0.005,0.911-0.293,1.168-1.172,1.168
			c-16.076-0.023-32.158-0.014-48.239-0.023c-3.415-0.004-5.493-2.206-5.493-5.805C-0.004,82.045,0.001,66.797,0.001,51.544"/>
	</defs>
	<use xlink:href="#SVGID_1_"  overflow="visible" fill-rule="evenodd" clip-rule="evenodd" fill="#fff"/>
	<clipPath id="SVGID_2_">
		<use xlink:href="#SVGID_1_"  overflow="visible"/>
	</clipPath>
</g>
</svg>
