<?xml version="1.0" encoding="utf-8"?>
<!-- Generator: Adobe Illustrator 16.0.0, SVG Export Plug-In . SVG Version: 6.00 Build 0)  -->
<!DOCTYPE svg PUBLIC "-//W3C//DTD SVG 1.1//EN" "http://www.w3.org/Graphics/SVG/1.1/DTD/svg11.dtd">
<svg version="1.1" id="Layer_1" xmlns="http://www.w3.org/2000/svg" xmlns:xlink="http://www.w3.org/1999/xlink" x="0px" y="0px"
	 width="103.926px" height="103.968px" viewBox="0 0 103.926 103.968" enable-background="new 0 0 103.926 103.968"
	 xml:space="preserve">
<path fill="#FFFFFF" d="M103.926,10.515v82.979c-0.036,0.211-0.068,0.418-0.104,0.627c-0.257,1.311-0.688,2.56-1.354,3.713
	c-1.858,3.172-4.582,5.154-8.193,5.896c-0.381,0.083-0.76,0.16-1.145,0.238H10.876c-0.072-0.027-0.142-0.064-0.219-0.078
	c-0.357-0.068-0.724-0.114-1.076-0.191c-4.83-1.044-8.492-4.844-9.357-9.705C0.165,93.636,0.074,93.285,0,92.927V11
	c0.06-0.27,0.128-0.549,0.174-0.823c0.741-4.098,2.948-7.109,6.665-8.991C8.551,0.325,10.382,0,12.291,0
	C38.36,0.005,64.426,0.005,90.5,0.005c0.513,0,1.021-0.005,1.537,0c0.715,0.009,1.428,0.051,2.133,0.183
	c4.881,0.925,8.615,4.614,9.613,9.494C103.838,9.957,103.879,10.236,103.926,10.515z M12.075,43.991v0.591v42.994
	c0,0.159-0.004,0.324,0.01,0.484c0.082,1.615,0.842,2.788,2.303,3.497c0.637,0.312,1.313,0.38,2.014,0.38
	c23.744-0.004,47.498-0.004,71.242-0.004c0.128,0,0.247,0.004,0.366,0c1.271-0.046,2.335-0.527,3.136-1.534
	c0.608-0.772,0.853-1.666,0.853-2.646c-0.006-14.43-0.006-28.854-0.006-43.277c0-0.055,0-0.109,0-0.165
	c-0.009-0.101-0.021-0.206-0.031-0.32h-8.939c2.334,9.947,0.559,19.053-5.484,27.301c-6.33,8.028-14.588,12.313-24.82,12.652
	c-5.812,0.192-11.278-1.223-16.346-4.078c-5.269-2.967-9.407-7.092-12.313-12.388c-4.07-7.416-5.018-15.262-2.989-23.488H12.075z
	 M72.006,51.993c-0.01-11.229-9.146-19.99-19.958-19.995c-10.94-0.009-19.959,8.871-19.99,19.913
	c-0.032,10.959,8.834,20.018,19.953,20.036C63.024,71.96,71.997,63.017,72.006,51.993z M81.985,31.966c1.965,0,3.928,0,5.887,0
	c0.238-0.005,0.49,0.005,0.732-0.032c1.941-0.302,3.379-1.95,3.383-3.913c0.01-4.02,0.01-8.034-0.004-12.054
	c0-0.412-0.082-0.837-0.206-1.231c-0.489-1.542-1.946-2.741-3.94-2.732c-3.883,0.014-7.765,0.005-11.646,0.005
	c-0.312,0-0.627,0.014-0.93,0.073c-1.887,0.366-3.227,1.986-3.236,3.923c-0.004,3.991,0,7.983,0.005,11.971
	c0.005,0.334,0.05,0.677,0.134,1.002c0.479,1.923,2.252,3.013,3.816,2.994C77.985,31.947,79.989,31.966,81.985,31.966z"/>
</svg>
