<?xml version="1.0" encoding="utf-8"?>
<!-- Generator: Adobe Illustrator 16.0.0, SVG Export Plug-In . SVG Version: 6.00 Build 0)  -->
<!DOCTYPE svg PUBLIC "-//W3C//DTD SVG 1.1//EN" "http://www.w3.org/Graphics/SVG/1.1/DTD/svg11.dtd">
<svg version="1.1" id="Layer_1" xmlns="http://www.w3.org/2000/svg" xmlns:xlink="http://www.w3.org/1999/xlink" x="0px" y="0px"
	 width="114.788px" height="93.498px" viewBox="0 0 114.788 93.498" enable-background="new 0 0 114.788 93.498"
	 xml:space="preserve">
<path fill-rule="evenodd" clip-rule="evenodd" fill="#fff" d="M38.678,93.498h-5.122c-0.115-0.025-0.232-0.054-0.348-0.066
	c-1.237-0.096-2.475-0.187-3.719-0.291c-1.848-0.145-3.678-0.419-5.504-0.751c-3.693-0.672-7.309-1.647-10.841-2.935
	c-4.499-1.639-8.774-3.73-12.816-6.279C0.212,83.105,0.054,83.068,0,82.856c4.13,0.478,8.222,0.415,12.298-0.175
	c4.076-0.585,8.006-1.685,11.787-3.295c3.536-1.507,9.741-5.213,10.5-6.283c-3.274-0.112-6.399-0.826-9.363-2.213
	c-2.979-1.395-5.561-3.328-7.736-5.798c-2.158-2.453-3.747-5.226-4.772-8.404c3.544,0.651,6.973,0.548,10.389-0.378
	c-5.45-1.287-9.957-4.051-13.485-8.396c-4.217-5.2-5.361-11.446-5.108-15.028c1.622,0.872,3.3,1.564,5.06,2.067
	c1.793,0.51,4.693,0.925,5.412,0.775c-3.32-2.287-5.91-5.2-7.749-8.77c-1.839-3.573-2.694-7.379-2.59-11.389
	c0.104-4.001,1.157-7.744,3.2-11.269c6.059,7.363,13.256,13.207,21.697,17.498c8.442,4.288,17.403,6.649,26.891,7.155
	c-0.021-0.162-0.037-0.277-0.054-0.395c-0.124-0.779-0.274-1.561-0.369-2.345c-0.337-2.747-0.149-5.47,0.498-8.159
	C59.264,6.626,70.25-1.45,82.685,0.218c2.852,0.382,5.523,1.262,8.047,2.628c2.125,1.145,4.026,2.59,5.703,4.328
	c0.183,0.191,0.345,0.295,0.618,0.195c0.237-0.083,0.494-0.1,0.743-0.158c4.773-1.07,9.28-2.826,13.514-5.279
	c0.092-0.058,0.191-0.1,0.373-0.19c-0.892,2.739-2.191,5.163-3.909,7.358c-1.735,2.204-3.81,4.034-6.159,5.574
	c0.457-0.013,0.896-0.074,1.328-0.141c2.822-0.42,5.57-1.101,8.251-2.047c1.212-0.432,2.395-0.921,3.595-1.386v0.091
	c-3.18,4.711-7.072,8.736-11.68,12.086c0,0.191-0.004,0.387,0,0.577c0.133,3.191,0,6.375-0.349,9.55
	c-0.286,2.578-0.71,5.126-1.304,7.649c-2.847,12.09-8.375,22.773-16.834,31.899c-5.66,6.109-12.28,10.924-19.847,14.423
	c-4.761,2.208-9.729,3.79-14.888,4.781c-1.764,0.341-3.531,0.64-5.316,0.813c-1.324,0.133-2.648,0.232-3.977,0.354
	C39.956,93.378,39.317,93.439,38.678,93.498"/>
</svg>
