<?xml version="1.0" encoding="utf-8"?>
<!-- Generator: Adobe Illustrator 16.0.0, SVG Export Plug-In . SVG Version: 6.00 Build 0)  -->
<!DOCTYPE svg PUBLIC "-//W3C//DTD SVG 1.1//EN" "http://www.w3.org/Graphics/SVG/1.1/DTD/svg11.dtd">
<svg version="1.1" id="Layer_1" xmlns="http://www.w3.org/2000/svg" xmlns:xlink="http://www.w3.org/1999/xlink" x="0px" y="0px"
	 width="1526px" height="248px" viewBox="0 0 1526 248" enable-background="new 0 0 1526 248" xml:space="preserve">
<path fill-rule="evenodd" clip-rule="evenodd" fill="#195B77" d="M433.101,117.711l20.102-4.737c0,0,26.796-30.974,37.463-28.974
	s14,3.809,22-0.096S545.333,63.334,560,60.667s32.667-7.333,34.667-11.333S593.969,55.101,604,56s56-38,66.667-37.333
	s33.333,12,45.333,10s52.667-14.684,78.667-10.009s54,2.008,64,14.675S868,56,878,57.333s36.667-4,44,4s2.666,10.667,13.333,14
	S969.332,76,974.666,82S990,96.666,1001.333,93.333S1042,84,1051.333,90s18.001,12.916,26.667,13.791s25.334,4.875,30,10.875
	s10,16.671,20,18.671s27.334,1.333,33.334,5.333s37.332,10.001,46.666,10.667s45.333,9.332,42,14.666s-3.333,12,8.667,12.667
	s33.999,2.666,37.333,13.333s21.334,2.666,24.667,4s34.668,10,47.334,10s85.996,6.666,107.33,18.666s44.667,14,54.667,14.667
	S1532.221,0,1532.221,0H-9.777L-12,183.28c0,0,118,16.72,183.994-6.612c38.873-13.743,95.333-34,110-36s36.667,0,48.667-2
	s27.333-11.333,27.333-9.333s-4.667,8.666-0.667,5.333s14-6.666,28-5.333s25.941-3.999,32-6.667"/>
</svg>
