<?xml version="1.0" encoding="utf-8"?>
<!-- Generator: Adobe Illustrator 16.0.0, SVG Export Plug-In . SVG Version: 6.00 Build 0)  -->
<!DOCTYPE svg PUBLIC "-//W3C//DTD SVG 1.1//EN" "http://www.w3.org/Graphics/SVG/1.1/DTD/svg11.dtd">
<svg version="1.1" id="Layer_1" xmlns="http://www.w3.org/2000/svg" xmlns:xlink="http://www.w3.org/1999/xlink" x="0px" y="0px"
	 width="39.66px" height="26.396px" viewBox="0 0 39.66 26.396" enable-background="new 0 0 39.66 26.396" xml:space="preserve">
<path fill="#5499AD" d="M0,7.281c0.037,0.03,1.088,0.84,1.125,0.654C1.115,7.988,0.81,7.994,0.767,8.003
	c0.12,0.366,0.499,0.551,0.852,0.631C1.675,8.647,1.379,8.788,1.473,8.83c0.236,0.103,0.429,0.283,0.6,0.471
	c0.145,0.159,0.273,0.338,0.431,0.486c0.083,0.078,0.46,0.075,0.444,0.042c0.06,0.119-0.203,0.322-0.115,0.516
	c0.152,0.333,0.486,0.6,0.73,0.867c0.167,0.184,0.331,0.431,0.527,0.583c0.308-0.03,0.37,0.056,0.16,0.243
	c0.433,0.445,1.004,0.959,1.112,1.592c0.085,0.501-0.085,0.895-0.352,1.307c-0.113,0.174-0.772,0.873-0.494,0.951
	c-0.399,0.091-1.36,1.516-1.022,1.645c-0.428,0.383-0.71,0.488-1.042,0.979c-0.103,0.151-0.992,1.663-1.104,1.639
	c0.053,0.011,0.39-0.102,0.388-0.042c-0.005,0.177-0.49,0.432-0.621,0.521c-0.299,0.204-0.545,0.72-0.72,1.041
	c2.435-0.236,4.46-1.729,6.116-3.433c0.922-0.948,1.806-1.929,2.822-2.778c1.02-0.854,2.244,0.023,3.059,0.789
	c-0.683,0.064-0.474,0.234-0.107,0.809c0.474,0.74,1.066,1.397,1.701,2.003c1.07,1.021,2.306,1.854,3.361,2.888
	c0.478,0.468,0.444,0.735,0.639,1.334c0.122,0.376,0.252,0.251,0.029,0.561c-0.035,0.049-0.157,0.216-0.035,0.262
	c-0.141,0.091-0.314,0.198-0.417,0.338c-0.03,0.042-0.015,0.162-0.042,0.182c-0.17,0.127-0.469,0.138-0.522,0.396
	c-0.033,0.158-0.643,0.405-0.405,0.55c-1.183,0.781,1.081,0.811,1.582,0.824c1.386,0.037,2.74-0.289,4.063-0.671
	c2.202-0.638,4.304-1.38,6.358-2.407c2.365-1.184,4.715-2.483,6.766-4.165c0.93-0.763,1.834-1.592,2.567-2.548
	c0.339-0.441,0.606-0.934,0.954-1.367c0.273-0.344,1.061-0.918,0.412-1.315c0.812,0.038,0.039-0.837-0.141-1.097
	c-0.457-0.663-0.524-1.439-1.123-2.035c-0.594-0.591-1.094-1.286-1.658-1.905c-2.059-2.255-4.604-4.37-7.662-5.019
	c-1.553-0.329-2.639-1.614-4.051-2.319c-1.438-0.719-3.004-1.1-4.593-1.291c-0.485-0.058-4.761-0.49-4.782-0.074
	c-0.014,0.267,1.11,0.658,1.283,0.854c0.209,0.239,0.322,0.574,0.564,0.782c0.158,0.135,0.625,0.112,0.263,0.369
	c0.573,0.497,0.479,0.583,0.365,1.187c-0.174,0.93-1.141,1.687-1.801,2.279c-0.703,0.631-5.377,4.459-4.111,5.414
	c-0.917,0.819-1.923,1.157-3.025,0.481c-0.821-0.504-1.543-1.165-2.297-1.76C4.666,8.315,2.477,6.942,0,7.281"/>
</svg>
