<?xml version="1.0" encoding="utf-8"?>
<!-- Generator: Adobe Illustrator 16.0.0, SVG Export Plug-In . SVG Version: 6.00 Build 0)  -->
<!DOCTYPE svg PUBLIC "-//W3C//DTD SVG 1.1//EN" "http://www.w3.org/Graphics/SVG/1.1/DTD/svg11.dtd">
<svg version="1.1" id="Layer_1" xmlns="http://www.w3.org/2000/svg" xmlns:xlink="http://www.w3.org/1999/xlink" x="0px" y="0px"
	 width="26.915px" height="10.731px" viewBox="0 0 26.915 10.731" enable-background="new 0 0 26.915 10.731" xml:space="preserve">
<g>
	<path fill="#26535E" d="M0.214,2.601C0.166,2.632,1.303,3.522,1.368,3.669C1.424,3.794,1.711,4.042,1.82,4.112
		c0.221,0.135,0.297,0.416,0.508,0.535C2.124,4.694,2.459,4.847,2.489,4.858C2.194,4.942,2.523,4.95,2.547,5.056
		c-0.169,0.148,0.143,0.25,0.139,0.361C2.682,5.534,2.4,5.468,2.591,5.626C2.581,5.69,2.462,5.702,2.424,5.743
		C2.423,5.804,2.463,5.831,2.545,5.825c-0.033,0.014-0.355,0.17-0.15,0.213c-0.072,0.043-0.164,0.08-0.08,0.154
		c-0.137,0.057-0.18,0.133-0.26,0.234C2.027,6.46,1.885,6.601,1.883,6.626C1.864,6.8,1.432,6.847,1.466,7.063
		C1.25,7.12,0.987,7.394,0.845,7.569c-0.042,0.053-0.587,0.43-0.504,0.484C0.034,8.222,0.218,8.417,0.483,8.458
		c0.315,0.049,0.635-0.045,0.933-0.141c0.652-0.211,1.283-0.494,1.896-0.799c1.308-0.65,2.37-1.652,3.933-1.395
		C7.191,6.146,6.982,6.255,6.922,6.251C7.184,6.265,7.535,6.55,7.789,6.642c0.086,0.092,0.34,0.104,0.457,0.141
		c0.195,0.064,0.391,0.213,0.568,0.322C9.412,7.472,9.98,7.778,10.312,8.39C10.666,8.265,11,8.083,11.277,7.829
		c0.072-0.066,0.139-0.139,0.209-0.205c0.236,0.07,0.475,0.137,0.713,0.199c0.271,0.072,0.543,0.121,0.816,0.178
		c0.201,0.041,0.365,0.221,0.553,0.305c0.646,0.293,1.434,0.303,2.129,0.352c0.973,0.07,1.947,0.109,2.922,0.127
		c-0.18,0.055-0.793,0.047-0.83,0.236c-0.045,0.238-0.234,0.461-0.199,0.674c0.018,0.105-0.119,0.479-0.156,0.543
		c-0.072,0.123-0.059,0.355-0.08,0.494c0.518-0.117,0.969-0.508,1.342-0.863c0.18-0.172,0.35-0.352,0.51-0.541
		c0.117-0.139,0.229-0.281,0.34-0.424c0.125-0.162,0.219-0.113,0.414-0.119c1.32-0.031,2.619-0.359,3.83-0.885
		c0.758-0.328,1.543-0.625,2.242-1.062c0.264-0.166,0.898-0.471,0.883-0.861c-0.014-0.363-0.867,0.053-1.033,0.127
		c0.191-0.203,0.842-0.564,0.859-0.85c0.021-0.379-0.67-0.676-0.932-0.857c-0.641-0.445-1.361-0.719-2.09-0.98
		c-0.758-0.273-1.535-0.49-2.322-0.652c-0.555-0.115-1.113-0.203-1.674-0.273c-0.65-0.08-1.25-0.004-1.734-0.498
		c-0.023,0.262-0.363-0.049-0.449-0.123c0.256,0.406-0.383-0.01-0.469-0.078c0.223,0.207,0.219,0.375-0.133,0.252
		c0.039,0.061,0.098,0.182-0.008,0.213c-0.254,0.076-0.543-0.221-0.719-0.363c-0.471-0.385-0.857-0.859-1.336-1.24
		c-0.178-0.143-0.369-0.303-0.582-0.391c-0.084-0.035-0.322,0.275-0.461,0.307c-0.131,0.027-0.373,0.312-0.43,0.424
		c-0.047,0.096-0.131,0.191-0.25,0.148c-0.049,0.105-0.213,0.34-0.363,0.285c-0.104,0.373-0.578,0.242-0.686,0.574
		c-0.135,0.416-0.736,0.51-1.035,0.758c-0.133,0.109-0.459,0.256-0.631,0.225c-0.172,0.176-0.363,0.209-0.529,0.344
		C9.736,3.466,8.834,3.874,8.602,3.733c-0.127,0.068,0.129,0.15,0.25,0.215c-0.803,0.176-1.646,0.4-2.473,0.434
		C5.494,4.419,4.744,3.671,4.014,3.276c-0.834-0.453-1.742-0.73-2.668-0.92c-0.354-0.072-0.748-0.189-1.113-0.15
		C-0.113,2.243-0.034,2.464,0.214,2.601"/>
</g>
</svg>
