<?xml version="1.0" encoding="utf-8"?>
<!-- Generator: Adobe Illustrator 16.0.0, SVG Export Plug-In . SVG Version: 6.00 Build 0)  -->
<!DOCTYPE svg PUBLIC "-//W3C//DTD SVG 1.1//EN" "http://www.w3.org/Graphics/SVG/1.1/DTD/svg11.dtd">
<svg version="1.1" id="Layer_1" xmlns="http://www.w3.org/2000/svg" xmlns:xlink="http://www.w3.org/1999/xlink" x="0px" y="0px"
	 width="1381.954px" height="182.954px" viewBox="0 0 1381.954 182.954" enable-background="new 0 0 1381.954 182.954"
	 xml:space="preserve">
<path fill="#FFFFFF" d="M1184.091,107.335c0,0,0.781-5.062,3.873-6.748c3.094-1.687,6.576-1.405,11.637,0
	c0,0-0.789-6.747,4.553-7.872c5.342-1.125,8.743,2.53,8.743,2.53s10.416-7.591,13.228-7.872s5.067-5.904,7.879-6.186
	s4.221-4.78,7.033-4.217c2.811,0.562,10.684-0.098,12.652-0.049s5.905-0.513,11.247,2.017s15.745,2.531,19.681,4.499
	c3.938,1.968,8.999,0,15.746,2.812s15.463,8.439,15.182,10.685c-0.281,2.248,3.655,4.215,6.748,3.653s15.463,1.125,17.993,1.125
	s7.029,2.249,9.278,5.623s27.834,2.926,27.834,2.926s3.936,0.729,4.498,2.978c0.562,2.25-3.092,4.499-3.092,4.499
	s-29.521-0.844-31.208,0s-4.498,4.78-5.904,6.186s-7.592,4.78-8.997,2.53s-12.091,4.779-17.994,4.498c0,0-4.778,1.143-8.434,0.009
	s-8.716-2.819-8.716-2.819s-1.126,2.706-2.25,3.32c-1.124,0.615-4.218,0.229-5.061,0c-0.843-0.229-6.999-0.791-6.999-0.791
	s-7.058,0.559-8.464,1.123s-20.805,1.404-22.492,0s-16.87,3.785-17.994,0.77c-1.124-3.017-10.683-8.359-11.808-8.359
	s-19.12,6.748-22.212,7.311s-5.903,0.281-11.808-3.936c0,0-6.467,2.812-12.371,0.562c-5.904-2.25-8.09-10.122-2.748-11.809
	c5.342-1.688,10.746-0.562,10.746-0.562V107.335z"/>
<path fill="#FFFFFF" d="M776.091,149.335c0,0,0.781-5.062,3.873-6.748c3.094-1.687,6.576-1.405,11.637,0
	c0,0-0.789-6.747,4.553-7.872s8.743,2.53,8.743,2.53s10.416-7.591,13.228-7.872s5.067-5.904,7.879-6.186s4.221-4.779,7.033-4.217
	c2.811,0.562,10.684-0.098,12.652-0.049s5.905-0.514,11.247,2.017s15.745,2.53,19.681,4.499c3.938,1.967,8.999,0,15.746,2.811
	c6.747,2.812,15.463,8.439,15.182,10.686c-0.281,2.248,3.655,4.215,6.748,3.653s15.463,1.125,17.993,1.125s7.029,2.249,9.278,5.623
	s27.834,2.926,27.834,2.926s3.936,0.729,4.498,2.978c0.562,2.25-3.092,4.499-3.092,4.499s-29.521-0.844-31.208,0
	s-4.498,4.78-5.904,6.186s-7.592,4.78-8.997,2.53s-12.091,4.779-17.994,4.498c0,0-4.778,1.143-8.434,0.009s-8.716-2.819-8.716-2.819
	s-1.126,2.706-2.25,3.32c-1.124,0.615-4.218,0.229-5.061,0c-0.843-0.229-6.999-0.791-6.999-0.791s-7.058,0.559-8.464,1.123
	s-20.805,1.404-22.492,0s-16.87,3.785-17.994,0.77c-1.124-3.017-10.683-8.359-11.808-8.359s-19.12,6.748-22.212,7.311
	s-5.903,0.281-11.808-3.936c0,0-6.467,2.812-12.371,0.562c-5.904-2.25-8.09-10.122-2.748-11.809
	c5.342-1.688,10.746-0.562,10.746-0.562V149.335z"/>
<path fill="#FFFFFF" d="M326.091,65.819c0,0-0.843-3.832-3.038-5.108c-2.197-1.277-4.815-1.064-8.409,0c0,0,0.488-5.108-3.307-5.959
	c-3.795-0.851-6.247,1.916-6.247,1.916s-7.417-5.747-9.415-5.959c-1.996-0.213-3.608-4.47-5.605-4.683
	c-1.998-0.213-3.004-3.618-5.002-3.192c-1.996,0.426-7.591-0.074-8.99-0.037c-1.398,0.037-4.195-0.388-7.99,1.527
	c-3.795,1.915-11.188,1.916-13.983,3.405c-2.797,1.49-6.393,0-11.187,2.128c-4.792,2.128-10.984,6.388-10.784,8.089
	c0.199,1.701-2.598,3.19-4.793,2.765c-2.198-0.426-10.985,0.852-12.784,0.852c-1.797,0-4.992,1.703-6.591,4.257
	c-1.598,2.554-19.772,2.215-19.772,2.215s-2.797,0.551-3.195,2.254c-0.4,1.703,2.195,3.405,2.195,3.405s20.972-0.639,22.171,0
	c1.199,0.639,3.195,3.619,4.194,4.683c0.998,1.064,5.394,3.619,6.391,1.916c0.999-1.703,8.591,3.619,12.783,3.406
	c0,0,3.396,0.864,5.992,0.006s6.191-2.135,6.191-2.135s0.8,2.049,1.599,2.514c0.798,0.465,2.996,0.173,3.595,0
	s4.972-0.599,4.972-0.599s5.015,0.422,6.013,0.85c1,0.427,14.78,1.062,15.979,0c1.198-1.062,11.983,2.865,12.783,0.582
	c0.798-2.283,7.589-6.327,8.388-6.327c0.8,0,13.583,5.108,15.779,5.534s4.194,0.213,8.389-2.979c0,0,4.594,2.128,8.788,0.426
	c4.194-1.703,6.033-7.663,2.239-8.939c-3.795-1.277-7.348-0.425-7.348-0.425V65.819z"/>
<path fill="#FFFFFF" d="M96.091,137.521c0,0,8-12.221,17-11.305c9,0.917,13,7.691,16,11.305c3,3.612-5,15.243-11,15.928
	s-13,0.315-22,0s-17,6.315-22,0s-16-5.715-19-6.516c-3-0.8-18,0-18,0s8-4.712,23-5.756s9-10.53,16-10.787
	S96.091,137.521,96.091,137.521z"/>
<path fill="#FFFFFF" d="M491.208,102.739c0,0-4.865-8.149-10.339-7.538s-7.906,5.129-9.731,7.538
	c-1.824,2.409,3.041,10.165,6.69,10.622s7.906,0.211,13.38,0s10.34,4.211,13.38,0c3.041-4.211,9.731-3.811,11.556-4.345
	s10.947,0,10.947,0s-4.865-3.143-13.988-3.839s-5.474-7.022-9.73-7.193C499.114,97.812,491.208,102.739,491.208,102.739z"/>
<path fill="#FFFFFF" d="M78.091,14.134c0,0,10-8,15-7s13,3.457,13,3.457s9-4.629,14-3.543s11,0.834,15,3.46s5,7.626,8,8.626
	s10,7.716,12,10.858s16-4.142,33,0s22,4.761,26,4.452s22,0,22,0s-33-0.741-40,5.475s-16,6.598-20,6.907s-14-3.312-19,0.999
	s-29,8.843-36,8.077s-33.348,5.766-37.674,0s-12.326-8.387-18.326-8.077s-28-9.121-28-7.905s-28,1.776-23-4.504s8-13.28,14-12.28
	s18-2,23,1s9-4,15-5S78.091,14.134,78.091,14.134z"/>
</svg>
