<?xml version="1.0" encoding="utf-8"?>
<!-- Generator: Adobe Illustrator 16.0.0, SVG Export Plug-In . SVG Version: 6.00 Build 0)  -->
<!DOCTYPE svg PUBLIC "-//W3C//DTD SVG 1.1//EN" "http://www.w3.org/Graphics/SVG/1.1/DTD/svg11.dtd">
<svg version="1.1" id="Layer_1" xmlns="http://www.w3.org/2000/svg" xmlns:xlink="http://www.w3.org/1999/xlink" x="0px" y="0px"
	 width="1074.134px" height="136.98px" viewBox="0 0 1074.134 136.98" enable-background="new 0 0 1074.134 136.98"
	 xml:space="preserve">
<path fill="#FFFFFF" d="M798.134,73.037c0,0,0.512-3.235,2.488-4.313c1.979-1.078,4.211-0.898,7.445,0c0,0-0.501-4.313,2.913-5.032
	c3.416-0.719,5.593,1.617,5.593,1.617s6.658-4.854,8.455-5.032c1.799-0.18,3.241-3.773,5.038-3.954
	c1.798-0.181,2.698-3.056,4.496-2.696c1.797,0.359,6.83-0.062,8.089-0.031c1.26,0.031,3.774-0.326,7.189,1.291
	s10.064,1.617,12.581,2.875c2.518,1.259,5.753,0,10.065,1.798c4.313,1.797,9.886,5.395,9.705,6.831
	c-0.18,1.436,2.338,2.693,4.314,2.335c1.977-0.359,9.885,0.72,11.502,0.72s4.494,1.438,5.932,3.595
	c1.438,2.157,17.793,1.87,17.793,1.87s2.517,0.466,2.876,1.904c0.359,1.438-1.977,2.875-1.977,2.875s-18.872-0.539-19.95,0
	c-1.079,0.539-2.876,3.056-3.775,3.954c-0.897,0.898-4.853,3.056-5.75,1.618c-0.898-1.438-7.729,3.056-11.504,2.876
	c0,0-3.055,0.729-5.392,0.005c-2.337-0.726-5.571-1.804-5.571-1.804s-0.721,1.73-1.438,2.123c-0.719,0.395-2.696,0.146-3.235,0
	c-0.539-0.146-4.475-0.505-4.475-0.505s-4.513,0.356-5.41,0.717c-0.899,0.361-13.3,0.897-14.379,0
	c-1.078-0.896-10.784,2.42-11.503,0.491c-0.719-1.928-6.829-5.343-7.548-5.343c-0.721,0-12.225,4.312-14.2,4.673
	c-1.978,0.36-3.773,0.18-7.548-2.517c0,0-4.136,1.799-7.908,0.359c-3.775-1.438-5.187-6.471-1.771-7.549
	c3.416-1.078,6.857-0.358,6.857-0.358L798.134,73.037L798.134,73.037z"/>
<path fill="#FFFFFF" d="M739.134,63.037c0,0,0.512-3.235,2.488-4.313c1.979-1.078,4.211-0.898,7.445,0c0,0-0.501-4.313,2.913-5.032
	c3.416-0.72,5.593,1.616,5.593,1.616s6.658-4.853,8.455-5.031c1.799-0.18,3.241-3.773,5.038-3.954
	c1.798-0.181,2.698-3.056,4.496-2.696c1.797,0.359,6.83-0.062,8.089-0.031c1.26,0.031,3.774-0.326,7.189,1.291
	s10.064,1.617,12.581,2.875c2.518,1.258,5.753,0,10.065,1.797c4.313,1.798,9.886,5.396,9.705,6.832
	c-0.18,1.436,2.338,2.693,4.314,2.335c1.977-0.359,9.885,0.72,11.502,0.72s4.494,1.438,5.932,3.595
	c1.438,2.157,17.793,1.87,17.793,1.87s2.517,0.466,2.876,1.904c0.359,1.438-1.977,2.875-1.977,2.875s-18.872-0.539-19.95,0
	c-1.079,0.539-2.876,3.056-3.775,3.954c-0.897,0.898-4.853,3.056-5.75,1.618c-0.898-1.438-7.729,3.056-11.504,2.876
	c0,0-3.055,0.729-5.392,0.005c-2.337-0.726-5.571-1.804-5.571-1.804s-0.721,1.73-1.438,2.123c-0.719,0.395-2.696,0.146-3.235,0
	c-0.539-0.146-4.475-0.505-4.475-0.505s-4.513,0.356-5.41,0.717c-0.899,0.361-13.3,0.897-14.379,0
	c-1.078-0.896-10.784,2.42-11.503,0.491c-0.719-1.928-6.829-5.343-7.548-5.343c-0.721,0-12.225,4.312-14.2,4.673
	c-1.978,0.36-3.773,0.18-7.548-2.517c0,0-4.136,1.799-7.908,0.359c-3.775-1.438-5.187-6.471-1.771-7.549
	c3.416-1.078,6.857-0.358,6.857-0.358L739.134,63.037L739.134,63.037z"/>
<path fill="#FFFFFF" d="M141.134,27.5c0,0-0.843-3.832-3.038-5.109c-2.197-1.276-4.815-1.064-8.409,0c0,0,0.488-5.107-3.307-5.959
	c-3.795-0.851-6.247,1.916-6.247,1.916s-7.417-5.747-9.415-5.959c-1.996-0.213-3.608-4.47-5.605-4.683
	c-1.998-0.213-3.004-3.618-5.002-3.192c-1.996,0.426-7.591-0.074-8.99-0.037c-1.398,0.037-4.195-0.388-7.99,1.527
	S71.943,7.92,69.148,9.409c-2.797,1.49-6.393,0-11.187,2.128c-4.792,2.128-10.984,6.388-10.784,8.089
	c0.199,1.701-2.598,3.19-4.793,2.765c-2.198-0.426-10.985,0.852-12.784,0.852c-1.797,0-4.992,1.703-6.591,4.258
	c-1.598,2.553-19.772,2.215-19.772,2.215S0.44,30.267,0.042,31.97c-0.4,1.703,2.195,3.405,2.195,3.405s20.972-0.639,22.171,0
	c1.199,0.64,3.195,3.618,4.194,4.683c0.998,1.064,5.394,3.619,6.391,1.916c0.999-1.702,8.591,3.619,12.783,3.406
	c0,0,3.396,0.863,5.992,0.006c2.597-0.857,6.191-2.135,6.191-2.135s0.8,2.049,1.599,2.514c0.798,0.466,2.996,0.175,3.595,0
	c0.599-0.174,4.972-0.599,4.972-0.599s5.015,0.423,6.013,0.851c1,0.427,14.78,1.062,15.979,0c1.198-1.062,11.983,2.865,12.783,0.582
	c0.798-2.283,7.589-6.327,8.388-6.327c0.8,0,13.583,5.106,15.779,5.532c2.196,0.427,4.194,0.213,8.389-2.979
	c0,0,4.594,2.128,8.788,0.426c4.194-1.703,6.033-7.662,2.239-8.939c-3.795-1.277-7.348-0.426-7.348-0.426L141.134,27.5L141.134,27.5
	z"/>
<path fill="#FFFFFF" d="M311.134,32.201c0,0,8-12.22,17-11.303c9,0.916,13,7.69,16,11.303c3,3.613-5,15.244-11,15.929
	c-6,0.686-13,0.315-22,0c-9-0.314-17,6.315-22,0c-5-6.314-16-5.715-19-6.515c-3-0.801-18,0-18,0s8-4.713,23-5.757s9-10.53,16-10.787
	S311.134,32.201,311.134,32.201z"/>
<path fill="#FFFFFF" d="M156.568,89.42c0,0,3.855-8.148,8.192-7.539c4.337,0.611,6.265,5.131,7.712,7.539
	c1.445,2.409-2.41,10.166-5.302,10.622c-2.892,0.456-6.265,0.21-10.603,0c-4.337-0.21-8.193,4.212-10.602,0
	c-2.41-4.212-7.712-3.812-9.157-4.345c-1.445-0.533-8.675,0-8.675,0s3.855-3.143,11.084-3.839s4.338-7.022,7.711-7.194
	C150.303,84.494,156.568,89.42,156.568,89.42z"/>
<path fill="#FFFFFF" d="M755.03,48.382c0,0,2.318-4.901,4.928-4.535c2.608,0.367,3.768,3.086,4.639,4.535
	c0.869,1.448-1.449,6.113-3.189,6.389c-1.737,0.273-3.768,0.127-6.377,0c-2.607-0.126-4.928,2.533-6.376,0
	c-1.449-2.533-4.639-2.292-5.508-2.613c-0.87-0.32-5.218,0-5.218,0s2.318-1.891,6.666-2.309c4.35-0.42,2.609-4.225,4.639-4.327
	S755.03,48.382,755.03,48.382z"/>
<path fill="#FFFFFF" d="M916.134,92.814c0,0,10-8,15-7s13,3.457,13,3.457s9-4.63,14-3.543c5,1.086,11,0.834,15,3.46s5,7.626,8,8.626
	s10,7.716,12,10.856c2,3.144,16-4.142,33,0c17,4.144,22,4.763,26,4.452c4-0.31,22,0,22,0s-33-0.741-40,5.476
	c-7,6.216-16,6.598-20,6.906c-4,0.31-14-3.312-19,0.998c-5,4.311-29,8.844-36,8.076c-7-0.766-33.348,5.768-37.674,0
	c-4.326-5.766-12.326-8.387-18.326-8.076c-6,0.312-28-9.121-28-7.904c0,1.216-28,1.775-23-4.504c5-6.28,8-13.28,14-12.28s18-2,23,1
	s9-4,15-5S916.134,92.814,916.134,92.814z"/>
<path fill="#FFFFFF" d="M867.106,25.966c0,0,8.293-6.635,12.439-5.806c4.146,0.83,10.78,2.867,10.78,2.867s7.464-3.839,11.609-2.938
	c4.146,0.9,9.122,0.691,12.439,2.869c3.315,2.178,4.146,6.324,6.634,7.154c2.488,0.829,8.293,6.398,9.952,9.004
	c1.658,2.605,13.269-3.436,27.366,0c14.097,3.436,18.244,3.948,21.562,3.691c3.318-0.258,18.244,0,18.244,0
	s-27.366-0.614-33.172,4.539c-5.805,5.156-13.269,5.473-16.586,5.729c-3.316,0.257-11.609-2.747-15.756,0.827
	c-4.146,3.575-24.05,7.334-29.854,6.698s-27.654,4.782-31.242,0s-10.222-6.955-15.197-6.698c-4.977,0.258-23.221-7.562-23.221-6.557
	c0,1.01-23.22,1.475-19.072-3.733c4.146-5.209,6.634-11.014,11.608-10.185c4.978,0.829,14.929-1.658,19.074,0.829
	c4.146,2.488,7.463-3.316,12.439-4.146C862.131,29.282,867.106,25.966,867.106,25.966z"/>
<path fill="#FFFFFF" d="M174.134,48.814c0,0,10-8,15-7s13,3.457,13,3.457s9-4.63,14-3.543c5,1.086,11,0.834,15,3.46s5,7.626,8,8.626
	s10,7.716,12,10.856c2,3.144,16-4.142,33,0c17,4.144,22,4.763,26,4.452c4-0.31,22,0,22,0s-33-0.741-40,5.476
	c-7,6.216-16,6.598-20,6.906c-4,0.31-14-3.312-19,0.998c-5,4.311-29,8.844-36,8.076c-7-0.766-33.348,5.768-37.674,0
	c-4.326-5.765-12.326-8.386-18.326-8.075c-6,0.312-28-9.12-28-7.904s-28,1.775-23-4.504c5-6.28,8-13.28,14-12.28s18-2,23,1s9-4,15-5
	S174.134,48.814,174.134,48.814z"/>
</svg>
