<?xml version="1.0" encoding="utf-8"?>
<!-- Generator: Adobe Illustrator 16.0.0, SVG Export Plug-In . SVG Version: 6.00 Build 0)  -->
<!DOCTYPE svg PUBLIC "-//W3C//DTD SVG 1.1//EN" "http://www.w3.org/Graphics/SVG/1.1/DTD/svg11.dtd">
<svg version="1.1" id="Layer_1" xmlns="http://www.w3.org/2000/svg" xmlns:xlink="http://www.w3.org/1999/xlink" x="0px" y="0px"
	 width="1279px" height="796px" viewBox="0 0 1279 796" enable-background="new 0 0 1279 796" xml:space="preserve">
<rect x="0.824" opacity="0.5" fill="#8ED5E3" enable-background="new    " width="1278.352" height="769"/>
<path fill="#E7F6FC" d="M21.393,348.749c5.397,0.72,8.654,2.998,8.654,2.998s3.966-7.364,6.845-7.725
	c2.879-0.359,9.36-0.008,9.36-0.008s4.938-13.317,10.746-13.677s12.287,3.236,12.287,3.236s11.156-13.95,30.947-12.733
	c19.791,1.217,25.549,7.334,25.549,7.334s5.757-1.08,7.916-1.44c2.159-0.36,11.004-1.08,11.004-1.08s5.549-4.024,6.988-4.891
	c1.439-0.867,10.795-2.666,12.234-2.666s10.436-9.988,12.595-9.672c2.159,0.316,8.637,2.835,8.637,2.835s6.117-3.603,9.355-4.68
	c3.238-1.077,8.996,0.684,8.996,0.684s14.394-9.678,19.791-8.599s15.474,2.519,15.474,2.519s21.591,9.715,26.988,15.473
	c5.397,5.758,8.636,5.541,8.636,5.541s5.963-3.292,9.562-2.617S291,322.05,291,322.05v2.902c0,0,7.864-9.374,14.342-8.294
	c6.479,1.08,11.876,9.281,12.955,10.038c1.079,0.757,5.037-2.122,7.196-1.762s7.917,1.364,8.996,1.762s18.352,1.91,22.67,9.827
	C361.477,344.44,369.034,347,369.034,347H380l10.265,2.788c0,0,4.679-8.581,11.516-8.794c6.837-0.213,9.355,2.299,9.355,2.299
	s6.116-14.756,16.192-14.037c10.076,0.719,11.875,6.835,11.875,6.835s6.117,2.878,10.436,7.916s13.313,10.912,15.474,10.854
	c2.159-0.058,25.549-0.661,30.587,0c5.038,0.661,23.866-7.319,25.247-8.007s10.008-8.605,16.311-9.325
	c6.303-0.72,7.03,3.453,7.03,3.453s5.896-7.051,10.681-7.411c4.785-0.36,9.931,0.36,9.931,0.36l7.718-3.958
	c0,0,3.686-13.314,10.523-11.875c6.839,1.439,5.321,4.102,5.321,4.102s7.896-8.06,9.744-7.7s5.466,0.195,5.466,0.195l5.113-4.826
	c0,0,4.721-9.258,8.588-9.763s10.922-1.065,12.549,0.72c1.627,1.785,8.152,3.86,8.177,4.283c0.025,0.423,5.059-5.033,9.11-5.002
	s13.251,4.318,13.251,4.318l2.474,6.765c0,0,6.167,4.33,9.607,4s8.146,3.719,8.853,4.394s4.001,2.617,4.001,2.617
	s10.172-4.377,15.312-1.36s14.258,5.902,14.258,5.902s11.087-3.604,15.379-2.885c4.292,0.719,10.914,1.812,12.461,2.885
	c1.547,1.073,8.023-2.165,9.463-1.805c1.44,0.36,3.578,3.598,5.567,4.318c1.989,0.72,11.636,0.36,11.636,0.36l12.744-1.08
	c0,0,1.719-12.594,7.478-13.314c5.758-0.72,11.874-1.08,13.674-1.08s7.197-6.031,9.716-5.714c2.519,0.317,12.595,4.635,14.034,5.354
	c1.438,0.719,3.238,7.025,4.678,7.471c1.44,0.446,7.197,9.775,10.436,10.868c3.239,1.093,7.557,2.532,9.355,4.691
	s7.558,6.117,11.516,6.117s10.074-1.439,11.874,0.36c1.801,1.799,8.996,5.757,10.437,6.837c1.439,1.08,9.355,6.312,12.234,4.775
	c2.879-1.537,7.917-5.495,12.596-4.775c4.678,0.72,8.636,5.074,10.074,5.056c1.439-0.018,3.239,3.94,5.759,3.221
	c2.519-0.719,13.674-3.239,15.833-3.239c2.158,0,11.514,1.614,13.312,3.326c1.799,1.712,6.118,3.303,7.917,3.767
	c1.799,0.464,19.072-1.981,23.03,1.4c3.958,3.381,16.204,5.181,18.537,5.541c2.333,0.36,12.409-7.843,17.807-5.541
	c5.398,2.302,11.875,8.06,15.833,8.779c3.958,0.719,25.188-3.598,28.067-5.038s5.757-16.387,11.515-14.671
	s11.155,2.076,11.155,2.076s1.8-7.26,6.478-7.948c2.339-0.344,5.036-0.344,7.149-0.258c2.115,0.086,3.646,0.258,3.646,0.258
	s2.158-7.525,6.837-7.525c4.678,0,5.397,1.147,6.478,1.653c1.08,0.506,9.716-4.895,11.875-5.433c2.159-0.538,16.553,0,16.553,0
	s4.318,2.701,5.397,1.981c1.079-0.72,2.879-8.276,8.276-8.636c5.396-0.36,8.636,3.226,8.636,3.226s5.758-5.745,7.196-5.745
	c1.439,0,3.239-11.155,10.437-11.155s7.557-10.795,17.272-11.155c9.715-0.36,13.312,0.36,13.312,0.36s0.72-13.674,9.716-16.553
	s20.189-5.398,24.488-1.799c4.299,3.599,10.776,11.94,12.936,12.268c2.16,0.328,9.355,9.051,11.516,10.086
	c2.16,1.035,9.354,1.036,12.233,2.475s9.357,12.234,12.235,15.473c2.878,3.239,30.586,16.289,31.306,17.369
	c0.721,1.08,27.281,322.255,27.281,322.255H-23l7.001-309.278"/>
<circle opacity="0.6" fill="#FFFFFF" enable-background="new    " cx="639.748" cy="604.321" r="113.465"/>
<rect y="618" fill="#FFFFFF" width="1279" height="175"/>
<path fill="#97CAD5" d="M364.309,613.029c0.148,0.755,0.99,1.63,0.986,1.525c-0.005-0.103,18.783-0.074,18.783-0.074l0.049-1.351
	L364.309,613.029z"/>
<path fill="#97CAD5" d="M354.274,635.809"/>
<polygon fill="#97CAD5" points="379,588 418.04,588 416.289,592 379,592 "/>
<path fill="none" stroke="#97CAD5" stroke-miterlimit="10" d="M476.912,596.917c0,0-0.297,2.505,3.275,2.146
	c3.571-0.358,7.437-0.788,8.187,0c0.75,0.79,1.34,7.108,1.19,9.479c-0.148,2.369,0.022,5.256,0.022,5.256"/>
<path fill="#97CAD5" d="M565,560.952l14.894,0.684l24.669-0.684c0,0-0.896,0.832-0.979,1.07c-0.042,0.125-15.756,1.103-23.889,1.068
	C572.197,563.06,565,562.32,565,562.32V560.952z"/>
<path fill="none" stroke="#97CAD5" stroke-width="0.6298" stroke-miterlimit="10" d="M565.373,568.058
	c0,0,10.526,0.537,17.445,0.599c5.235,0.046,8.747,0.089,19.698-1.125"/>
<path fill="#97CAD5" d="M566.607,568.543c0,0-1.236-0.363-0.952-0.605c0.284-0.243,6.107-5.569,6.107-5.569l0.976,0.061
	L566.607,568.543z"/>
<path fill="#97CAD5" d="M573.607,568.543c0,0-1.236-0.363-0.952-0.605c0.284-0.243,6.107-5.569,6.107-5.569l0.976,0.061
	L573.607,568.543z"/>
<path fill="#97CAD5" d="M578.702,568.543c0,0,1.237-0.363,0.954-0.605c-0.284-0.243-6.108-5.569-6.108-5.569l-0.976,0.061
	L578.702,568.543z"/>
<path fill="#97CAD5" d="M585.702,568.543c0,0,1.237-0.363,0.954-0.605c-0.284-0.243-6.108-5.569-6.108-5.569l-0.976,0.061
	L585.702,568.543z"/>
<path fill="#97CAD5" d="M571.702,568.543c0,0,1.237-0.363,0.954-0.605c-0.284-0.243-6.108-5.569-6.108-5.569l-0.976,0.061
	L571.702,568.543z"/>
<path fill="#97CAD5" d="M579.37,568.543c0,0-1.237-0.363-0.954-0.605c0.284-0.243,6.108-5.569,6.108-5.569l0.976,0.061
	L579.37,568.543z"/>
<path fill="#97CAD5" d="M587.37,568.543c0,0-1.237-0.363-0.954-0.605c0.284-0.243,6.108-5.569,6.108-5.569l0.976,0.061
	L587.37,568.543z"/>
<path fill="#97CAD5" d="M594.37,568.543c0,0-1.237-0.363-0.954-0.605c0.284-0.243,6.108-5.569,6.108-5.569l0.976,0.061
	L594.37,568.543z"/>
<path fill="#97CAD5" d="M591.465,568.543c0,0,1.236-0.363,0.953-0.605c-0.284-0.243-6.107-5.569-6.107-5.569l-0.977,0.061
	L591.465,568.543z"/>
<path fill="#97CAD5" d="M598.465,568.543c0,0,1.236-0.363,0.953-0.605c-0.284-0.243-6.107-5.569-6.107-5.569l-0.977,0.061
	L598.465,568.543z"/>
<path fill="none" stroke="#97CAD5" stroke-width="0.7087" stroke-miterlimit="10" d="M566,554.306c0,0,10.152,7.034,13.894,7.33
	l2.044,0.388"/>
<path fill="none" stroke="#97CAD5" stroke-width="0.7087" stroke-miterlimit="10" d="M570.215,557.2l0.43,4.123l1.855,0.698v13.931
	c0,0-0.12,0.125-0.305,0.556c-0.186,0.432-0.678,1.046-0.555,1.354"/>
<g>
	<g>
		<polygon fill="#DAF0F2" points="328,585 346.044,585 345.271,587 328,587 		"/>
	</g>
	<g>
		<path fill="#DAF0F2" d="M377.151,596.368c-0.004-0.053-0.077-1.313-0.013-2.375c0.066-1.051-0.198-3.505-0.42-3.862
			c-0.27-0.134-1.985,0.042-3.016,0.146l-0.198,0.02c-0.708,0.075-1.239-0.071-1.585-0.424c-0.417-0.425-0.367-0.971-0.357-1.032
			l0.906,0.106l-0.454-0.053l0.454,0.046c0,0.006-0.011,0.181,0.108,0.3c0.141,0.134,0.435,0.184,0.836,0.147l0.198-0.021
			c2.308-0.234,3.363-0.291,3.791,0.16c0.536,0.563,0.693,3.805,0.648,4.523c-0.062,1.006,0.01,2.252,0.011,2.264L377.151,596.368z"
			/>
	</g>
	<g>
		<rect x="317" y="589" fill="#DAF0F2" width="1" height="10"/>
	</g>
	<g>
		<rect x="318" y="589" fill="#DAF0F2" width="2" height="10"/>
	</g>
	<g>
		<path fill="#DAF0F2" d="M316.079,593h19.859c0,0,0.917-0.965,0.65-1.763c-0.268-0.802-0.669-1.237-0.669-1.237h-20.889
			c0,0-0.421,0.844-0.421,1.5C314.611,592.546,316.079,593,316.079,593z"/>
	</g>
	<g>
		<path fill="#DAF0F2" d="M322,590.189V581h-1.394c0,0-0.553-0.875-0.001-0.943c0.556-0.067,1.395,0.064,1.395,0.064v-5.611
			l4.318-1.386L331,574.51v4.879c0,0,0.838,0.047,1.113,0.115c0.272,0.067,0.402,0.41,0.127,0.617
			c-0.273,0.206-1.24,0.412-1.24,0.412v10.353L322,590.189z"/>
	</g>
	<g>
		<path fill="#DAF0F2" d="M320.963,577.448c0,0,0.287-0.028,0.562,0c0.69,0.069,0.477-0.21,0.477-0.562c0-0.35,0-1.248,0-1.248
			s1.978-0.854,2.288-0.926c0.307-0.069,1.222-0.911,1.278-1.122c0.056-0.211,0.366,0.211,0.544,0
			c0.179-0.211,0.021,0.982,0.452,1.053c0.432,0.069,0.874,0.142,1.243,0.21c0.366,0.069,0.497,0.785,1.171,0.785
			c0.679,0,1.049-0.084,1.295,0.406c0.243,0.492-1.085,1.053-0.356,1.193c0.727,0.14,1.772-0.562,1.772-0.562
			s0.367-0.882-0.001-1.038c-0.368-0.154-1.413-0.436-1.844-0.646c-0.431-0.211-0.431-0.211-0.981-0.981
			c-0.554-0.771-0.244-1.051-0.613-1.262c-0.369-0.21-0.186-0.49-0.982-0.632c-0.797-0.141-1.342-0.42-1.594-0.351
			c-0.248,0.069-0.433,0.351-0.556,0.631c-0.124,0.281-0.86,0-1.289,0.562c-0.43,0.561-0.737,0.559-1.168,1.051
			c-0.429,0.49-0.858,0.49-1.229,0.981c-0.367,0.491-0.676,0.562-0.799,1.191c-0.121,0.631-0.709,1.216-0.385,1.274
			C320.572,577.519,320.963,577.448,320.963,577.448z"/>
	</g>
	<g>
		<path fill="#DAF0F2" d="M329.812,580.882c0.552,0.105,12.112,9.309,12.112,9.309s1.148,0.431,1.253,0
			c0.104-0.433-12.813-9.656-12.813-9.656L329.812,580.882z"/>
	</g>
	<g>
		<path fill="#DAF0F2" d="M320.373,592.36c0,0-0.449,0.461,0.027,1.094c0.78,1.044,0.6,3.509,0.6,3.509v2.982
			c0,0,1.107,0.058,1.631,0c0.521-0.059-0.014-5.924-0.014-5.924s1.039-0.295,1.145-0.608c0.104-0.313-0.004-1.566-0.004-1.566
			l-3.395-0.611L320.373,592.36z"/>
	</g>
	<g>
		<path fill="#DAF0F2" d="M330.477,592.36c0,0,0,0.461,0.476,1.094c0.781,1.044,1.049,3.509,1.049,3.509v2.982
			c0,0,0.66,0.058,1.182,0c0.523-0.059-0.232-5.924-0.232-5.924s0.925-0.295,1.028-0.608s-0.059-1.566-0.059-1.566l-3.425-0.611
			L330.477,592.36z"/>
	</g>
	<g>
		<path fill="#DAF0F2" d="M372.637,592.36c0,0-0.08,0.461,0.396,1.094c0.782,1.044,0.969,3.509,0.969,3.509v2.982
			c0,0,0.74,0.058,1.262,0c0.522-0.059-0.193-5.924-0.193-5.924s0.947-0.295,1.052-0.608s-0.048-1.566-0.048-1.566l-3.419-0.611
			L372.637,592.36z"/>
	</g>
	<g>
		<path fill="#DAF0F2" d="M335.938,593h41.466c0,0,2.249-2.42,0-2.449c-2.249-0.033-41.482,0.181-41.482,0.181L335.938,593z"/>
	</g>
	<g>
		<path fill="#DAF0F2" d="M373,591.582v-3.831c0,0,0.219-1.457,1.139-1.221c0.287,0.073,0.95,0.323,1.126,1.046
			c0.4,1.603,0.182,4.355,0.182,4.355L373,591.582z"/>
	</g>
</g>
<path fill="#DAF0F2" d="M671.979,615.36c0,0,18.978,0.561,17.532-3.476c-1.444-4.036-62.114-6.848-62.114-6.848l-59.463,0.152
	c0,0-34.867-1.274-56.315-2.731c-0.041-2.037-0.478-5.457-0.478-5.457s1.09-0.346,1.21-0.714c0.024-0.073,0.034-0.196,0.037-0.336
	h2.268h43.104c0.057,0.121,0.125,0.247,0.229,0.384c0.917,1.224,1.013,4.111,1.013,4.111v3.493c0,0,0.99,0.067,1.601,0
	c0.612-0.067-0.167-6.938-0.167-6.938s1.144-0.346,1.265-0.714c0.023-0.073,0.035-0.196,0.041-0.336h1.184
	c0.017,0.389,0.02,0.743,0.001,1.016c-0.076,1.243,0.009,2.721,0.015,2.782l1.068-0.062c-0.002-0.014-0.085-1.474-0.014-2.651
	c0.021-0.333,0.004-1.13-0.062-2.01c0.48-0.765,0.854-1.752-0.237-1.972c-0.115-0.618-0.267-1.117-0.459-1.319
	c-0.341-0.358-1.033-0.439-2.279-0.371c-0.034-0.678-0.105-1.354-0.245-1.913c-0.206-0.847-1.001-1.14-1.337-1.227
	c-1.078-0.276-1.371,1.431-1.371,1.431v1.908c-0.186-0.026-0.332-0.08-0.421-0.164c-0.14-0.141-0.127-0.346-0.127-0.353
	l-0.445-0.044l-0.618-0.072c-0.01,0.072-0.067,0.711,0.421,1.209c0.286,0.293,0.688,0.458,1.19,0.501v0.376
	c-11.578,0.044-38.28,0.208-42.728,0.235c-0.297-0.746-0.641-1.3-0.641-1.3H509v-3h8.168c2.499,1.967,4.5,3.56,4.5,3.56
	s1.346,0.504,1.469,0c0.044-0.182-1.887-1.696-4.373-3.56h6.823l0.906-3h-11.792c-2.328-1.701-4.529-3.285-5.701-4.126v-0.628
	c0,0,1.1-0.241,1.42-0.482c0.323-0.242,0.139-0.644-0.182-0.723c-0.322-0.08-1.238-0.136-1.238-0.136v-2.81
	c0.388-0.179,0.674-0.368,0.674-0.368s0.433-1.033-0.001-1.216c-0.148-0.062-0.396-0.144-0.673-0.232v-1.091l-2.766-0.786
	c-0.457-0.749-0.193-1.048-0.59-1.274c-0.434-0.246-0.219-0.574-1.151-0.74c-0.935-0.163-1.571-0.491-1.867-0.409
	c-0.29,0.081-0.507,0.409-0.649,0.739c-0.146,0.329-1.01,0-1.512,0.657c-0.503,0.656-0.863,0.653-1.368,1.23
	c-0.146,0.168-0.294,0.282-0.438,0.381L498,574.142v0.223c-0.117,0.091-0.232,0.198-0.342,0.345
	c-0.432,0.576-0.791,0.659-0.937,1.396c-0.142,0.739-0.83,1.424-0.45,1.493c0.381,0.068,0.838-0.014,0.838-0.014
	s0.174-0.033,0.494,0c0.196,0.021,0.319,0.015,0.396-0.009v3.14c0,0-0.82-0.053-1.472,0.029c-0.646,0.08,0.163,1.207,0.163,1.207
	H498v10h-2v-1h-2h-2v1h-1.839c0,0-0.493,1.229-0.493,2c0,1.225,1.72,2,1.72,2H492v4.275c-5.725,0.258-15.327,3.506-17.73,3.721
	c-3,0.268-20.848-1.66-24-9.143c-3.151-7.481-11-3.126-14-5.411s-15,2.635-15,2.635s-20-0.35-23,0c-3,0.349-13.02,0-17.938,0
	s-2.429-7.309-9.541-10.251c-7.112-2.943-8.239,12.516-12.132,13.027c-3.894,0.513-14.632,1.886-14.632,1.886
	s-2.757-6.012-7.757-8.934s-9.227-1.795-9.227-1.795s-3.773,5.717-7.982,8.843s-3.791,12.874-7.791,12.839s-13-5.416-13-5.416
	s4-13.549,0.96-15.507c-3.042-1.958-0.96-15.042-2.978-15.042c-2.018,0-17.982,6.578-17.982,6.578v17.333c0,0-6,11.089-11,12.054
	c-5,0.966-0.1,7.583-0.1,7.583l9,3.2 M282.27,618.161l386.892-1.846v1.637 M513.335,585.952H509v-3.312
	C510.1,583.452,511.671,584.658,513.335,585.952z M508.791,596.336c0.916,1.224,1.209,4.111,1.209,4.111v1.899
	c-4.395-0.311-8.126-0.628-10.743-0.941c-0.041-1.982-0.247-4.403-0.247-4.403s1.236-0.346,1.359-0.714
	c0.022-0.073,0.037-0.196,0.045-0.336h8.139C508.62,596.074,508.688,596.197,508.791,596.336z M560.977,592.426
	c0.702-0.049,1.295-0.062,1.454,0.018c0.056,0.089,0.112,0.293,0.167,0.562c-0.397-0.001-0.948-0.001-1.628,0.001
	C560.975,592.822,560.977,592.627,560.977,592.426z M496.183,595.952c0.035,0.121,0.089,0.247,0.191,0.384
	c0.915,1.224,0.626,4.111,0.626,4.111v0.641c-0.395-0.066-0.73-0.135-1-0.202v-4.934H496.183L496.183,595.952z"/>
<path fill="#DAF0F2" d="M1000.457,611.337c0,0,18.977,0.51,17.532-3.16c-1.445-3.67-62.114-6.228-62.114-6.228l-59.463,0.139
	c0,0-34.868-1.159-56.316-2.484c-0.041-1.853-0.477-4.963-0.477-4.963s1.089-0.313,1.21-0.648c0.023-0.066,0.034-0.178,0.037-0.307
	h2.267h43.105c0.056,0.11,0.125,0.227,0.228,0.351c0.917,1.111,1.013,3.739,1.013,3.739v3.177c0,0,0.99,0.062,1.602,0
	c0.612-0.062-0.167-6.312-0.167-6.312s1.143-0.313,1.264-0.648c0.024-0.066,0.035-0.178,0.041-0.307h1.185
	c0.016,0.354,0.019,0.678,0.001,0.925c-0.076,1.131,0.009,2.475,0.014,2.529l1.069-0.057c-0.002-0.013-0.085-1.34-0.015-2.412
	c0.021-0.303,0.004-1.027-0.062-1.828c0.479-0.693,0.854-1.593-0.238-1.792c-0.115-0.562-0.266-1.016-0.459-1.201
	c-0.34-0.324-1.033-0.398-2.279-0.337c-0.033-0.614-0.104-1.231-0.244-1.739c-0.206-0.771-1.001-1.035-1.338-1.114
	c-1.077-0.253-1.37,1.3-1.37,1.3v1.736c-0.187-0.024-0.332-0.072-0.421-0.149c-0.141-0.128-0.128-0.312-0.128-0.32l-0.444-0.04
	l-0.618-0.064c-0.01,0.064-0.068,0.646,0.42,1.1c0.287,0.268,0.689,0.416,1.191,0.455v0.344c-11.578,0.038-38.28,0.188-42.729,0.214
	c-0.296-0.68-0.64-1.184-0.64-1.184h-5.633v-2.729h8.168c2.499,1.789,4.5,3.236,4.5,3.236s1.346,0.459,1.469,0
	c0.044-0.165-1.887-1.542-4.373-3.236h6.823l0.905-2.729H843.18c-2.328-1.547-4.528-2.986-5.701-3.752v-0.57
	c0,0,1.101-0.221,1.421-0.438c0.322-0.221,0.139-0.586-0.183-0.657c-0.322-0.072-1.238-0.123-1.238-0.123v-2.555
	c0.389-0.163,0.675-0.335,0.675-0.335s0.432-0.939-0.001-1.105c-0.149-0.058-0.396-0.131-0.673-0.212v-0.991l-2.767-0.716
	c-0.457-0.682-0.192-0.953-0.59-1.159c-0.433-0.225-0.218-0.522-1.151-0.674c-0.934-0.147-1.57-0.446-1.866-0.372
	c-0.29,0.073-0.508,0.372-0.65,0.673c-0.146,0.3-1.009,0-1.511,0.598c-0.503,0.598-0.863,0.596-1.368,1.12
	c-0.147,0.153-0.294,0.257-0.439,0.347l-0.656,0.185v0.201c-0.117,0.082-0.232,0.182-0.343,0.313
	c-0.431,0.523-0.791,0.6-0.936,1.271c-0.142,0.674-0.83,1.295-0.451,1.358c0.381,0.062,0.838-0.013,0.838-0.013s0.174-0.03,0.494,0
	c0.197,0.018,0.32,0.014,0.396-0.008v2.854c0,0-0.82-0.048-1.473,0.026c-0.646,0.072,0.163,1.098,0.163,1.098h1.31v9.095h-2v-0.909
	h-2h-2v0.909h-1.839c0,0-0.493,1.119-0.493,1.819c0,1.113,1.72,1.818,1.72,1.818h0.612v3.89c-5.726,0.233-15.327,3.188-17.73,3.383
	c-3,0.243-20.848-1.51-24-8.312c-3.151-6.806-11-2.845-14-4.923c-3-2.077-15,2.396-15,2.396s-20-0.317-23,0s-13.02,0-17.938,0
	s-2.43-6.646-9.541-9.323c-7.112-2.677-8.239,11.383-12.133,11.851c-3.893,0.466-14.632,1.715-14.632,1.715
	s-2.756-5.468-7.756-8.125s-9.227-1.633-9.227-1.633s-3.773,5.198-7.982,8.043c-4.209,2.843-3.791,11.708-7.791,11.677
	c-4-0.032-13-4.926-13-4.926s4-12.323,0.959-14.104s-0.959-13.681-2.977-13.681c-2.019,0-17.982,5.982-17.982,5.982v15.765
	c0,0-6,10.085-11,10.963c-5,0.877-0.1,6.896-0.1,6.896l9,2.91 M610.748,613.885l386.892-1.679v1.488 M841.812,584.591h-4.335v-3.013
	C838.578,582.317,840.149,583.414,841.812,584.591z M837.27,594.035c0.916,1.111,1.209,3.739,1.209,3.739v1.729
	c-4.395-0.283-8.125-0.571-10.742-0.856c-0.041-1.804-0.247-4.006-0.247-4.006s1.235-0.313,1.358-0.648
	c0.023-0.066,0.037-0.178,0.045-0.307h8.14C837.099,593.797,837.166,593.909,837.27,594.035z M889.455,590.479
	c0.702-0.044,1.295-0.057,1.454,0.017c0.055,0.081,0.112,0.267,0.167,0.513c-0.398-0.001-0.949-0.001-1.628,0
	C889.453,590.84,889.455,590.662,889.455,590.479z M824.661,593.686c0.035,0.11,0.089,0.227,0.19,0.351
	c0.915,1.112,0.626,3.739,0.626,3.739v0.582c-0.395-0.062-0.73-0.122-1-0.185v-4.487H824.661L824.661,593.686z"/>
<polygon fill="#97CAD5" points="353,598 354,636 356,636 355,598 "/>
<polygon fill="#97CAD5" points="356,598 357,636 359,636 358,598 "/>
<path fill="#97CAD5" d="M350.115,605h45.02c0,0,2.08-1.285,1.476-3.098c-0.605-1.813-1.516-1.902-1.516-1.902h-47.349
	c0,0-0.955,1.014-0.955,2.5C346.791,604.869,350.115,605,350.115,605z"/>
<path fill="#97CAD5" d="M364,599.854V579h-3.617c0,0-1.021-1.973,0.229-2.129c1.252-0.154,3.389,0.159,3.389,0.159V564.31
	l8.588-3.142l9.412,3.142v11.059c0,0,2.866,0.107,3.489,0.263c0.622,0.155,0.433,0.934-0.19,1.399
	c-0.621,0.467-3.299,0.934-3.299,0.934v23.469L364,599.854z"/>
<path fill="#97CAD5" d="M601,606.854V586h-3.617c0,0-1.021-1.973,0.229-2.129c1.252-0.154,3.389,0.159,3.389,0.159v-34.484v-6.235
	l8.588-3.142L638,542.311v39.059c0,0,2.866,0.107,3.489,0.263c0.622,0.155,0.433,0.933-0.19,1.399
	c-0.621,0.467-3.299,0.934-3.299,0.934v23.469L601,606.854z"/>
<path fill="#97CAD5" d="M361.19,570.972c0,0,0.879-0.062,1.499,0c1.567,0.159,1.311-0.477,1.311-1.271s0-2.829,0-2.829
	s4.257-1.939,4.953-2.099c0.696-0.16,2.657-2.066,2.784-2.543c0.128-0.479,0.773,0.477,1.179,0c0.404-0.479,0.021,2.225,0.995,2.384
	c0.974,0.159,1.964,0.317,2.8,0.478c0.834,0.158,1.121,1.78,2.652,1.78s2.371-0.192,2.928,0.921s-2.459,2.386-0.812,2.703
	c1.648,0.317,4.016-1.271,4.016-1.271s0.836-2.001,0.001-2.353c-0.835-0.351-3.2-0.986-4.175-1.464
	c-0.976-0.478-0.976-0.479-2.228-2.226c-1.254-1.747-0.557-2.385-1.392-2.86c-0.836-0.479-0.418-1.112-2.229-1.432
	c-1.81-0.318-3.04-0.953-3.607-0.794c-0.567,0.158-0.985,0.793-1.265,1.431c-0.278,0.637-1.947,0-2.923,1.271
	c-0.975,1.272-1.671,1.271-2.645,2.385c-0.976,1.112-1.948,1.112-2.784,2.226c-0.835,1.112-1.531,1.272-1.809,2.704
	c-0.278,1.43-1.61,2.751-0.875,2.885C360.303,571.131,361.19,570.972,361.19,570.972z"/>
<path fill="#97CAD5" d="M381.248,578.757c1.25,0.236,27.457,21.097,27.457,21.097s2.604,0.977,2.84,0
	c0.237-0.978-29.047-21.89-29.047-21.89L381.248,578.757z"/>
<path fill="#97CAD5" d="M636.248,586.757c1.25,0.236,27.457,21.097,27.457,21.097s2.604,0.977,2.84,0
	c0.237-0.978-29.047-21.89-29.047-21.89L636.248,586.757z"/>
<path fill="#97CAD5" d="M359.85,604.775c0,0-1.149,1.045-0.075,2.478c1.774,2.367,1.227,7.956,1.227,7.956l1,23.759
	c0,0,2.646,0.131,3.83,0s-0.957-30.427-0.957-30.427s2.388-0.67,2.625-1.38c0.236-0.711,0.011-3.551,0.011-3.551l-7.687-1.39
	L359.85,604.775z"/>
<path fill="#97CAD5" d="M382.754,604.775c0,0-1.103,1.045-0.028,2.478c1.774,2.367,1.274,7.956,1.274,7.956l1,23.759
	c0,0,2.599,0.131,3.781,0c1.184-0.131-0.98-30.427-0.98-30.427s2.377-0.67,2.613-1.38c0.236-0.711,0.005-3.551,0.005-3.551
	l-7.69-1.39L382.754,604.775z"/>
<path fill="#97CAD5" d="M478.322,604.775c0,0-0.888,1.045,0.188,2.478c1.774,2.367,1.49,7.956,1.49,7.956l1,23.759
	c0,0,2.383,0.131,3.564,0c1.185-0.131-1.089-30.427-1.089-30.427s2.323-0.67,2.561-1.38c0.235-0.711-0.022-3.551-0.022-3.551
	l-7.703-1.39L478.322,604.775z"/>
<path fill="#97CAD5" d="M380.064,600.287l32.916-22.323c0,0,2.474-1.03,3.216,0c0.741,1.029-3.216,3.337-3.216,3.337l-30.371,20.132
	L380.064,600.287z"/>
<path fill="#97CAD5" d="M395.135,605h93.989c0,0,5.096-4.871,0-4.943c-5.097-0.071-94.029,0.104-94.029,0.104L395.135,605z"/>
<path fill="#97CAD5" d="M415,601v-30h-3.278c0,0-2.064-4.332-0.068-3.881s3.348,0.178,3.348,0.178v-12.464
	c0,0-6.281,2.185-4.202-1.224c2.078-3.407,6.557-5.688,8.811-5.449c2.252,0.239,4.94-0.239,7.194,0s10.359-1.591,12.162,0
	s6.308-2.042,8.561,0c2.254,2.042,8.562,2.943,8.562,2.943s-1.353,5.788-0.001,6.5c1.353,0.711-2.253,3.852-2.253,3.852L451.727,567
	H457v4.419l-5.145-0.368c0,0,0.688,11.151,2.039,13.405c1.353,2.254,1.161,3.717,2.758,5.014c1.598,1.296,2.348,5.804,2.348,5.804
	v5.369l-44.283,1.759"/>
<path fill="none" stroke="#97CAD5" stroke-miterlimit="10" d="M381.48,570.495c0,0,8.225,4.184,15.907,4.368
	c7.684,0.185,17.492-3.444,17.492-3.444"/>
<path fill="#E7F6FD" d="M453.324,593.933c1.17,1.521,2.146,5.099,2.146,5.099l-6.47,0.031v-13.427L453.324,593.933z"/>
<path fill="#97CAD5" d="M478,603.012v-8.688c0,0,1.069-3.301,3.152-2.766c0.646,0.167,2.438,0.733,2.843,2.369
	c0.903,3.633-0.024,9.873-0.024,9.873L478,603.012z"/>
<g>
	<g>
		<polygon fill="#DAF0F2" points="285,599 261.886,599 262.863,602 285,602 		"/>
	</g>
	<g>
		<path fill="#DAF0F2" d="M222.567,614.262c0.005-0.067,0.098-1.717,0.015-3.104c-0.084-1.374,0.252-4.581,0.53-5.049
			c0.341-0.176,2.511,0.056,3.812,0.189l0.251,0.025c0.895,0.099,1.565-0.093,2.003-0.555c0.527-0.556,0.464-1.269,0.453-1.35
			l-1.146,0.141l0.574-0.067l-0.574,0.059c0,0.009,0.014,0.235-0.137,0.393c-0.178,0.175-0.549,0.239-1.057,0.193l-0.251-0.027
			c-2.916-0.308-4.253-0.381-4.791,0.209c-0.678,0.737-0.878,4.973-0.821,5.914c0.077,1.313-0.013,2.942-0.014,2.958
			L222.567,614.262z"/>
	</g>
	<g>
		<rect x="297" y="605" fill="#DAF0F2" width="1" height="13"/>
	</g>
	<g>
		<rect x="294" y="605" fill="#DAF0F2" width="3" height="13"/>
	</g>
	<g>
		<path fill="#DAF0F2" d="M299.76,610h-25.102c0,0-1.16-1.301-0.823-2.344c0.338-1.047,0.846-1.656,0.846-1.656h26.402
			c0,0,0.531,1.143,0.531,2C301.614,609.367,299.76,610,299.76,610z"/>
	</g>
	<g>
		<path fill="#DAF0F2" d="M293,606.188V594h1.037c0,0,1.06-1.055,0.364-1.145c-0.702-0.091-1.401,0.171-1.401,0.171v-7.334
			l-5.77-1.812l-6.23,1.812v6.377c0,0-1.109,0.062-1.457,0.149c-0.346,0.088-0.485,0.536-0.136,0.808
			c0.346,0.27,1.593,0.539,1.593,0.539v13.53L293,606.188z"/>
	</g>
	<g>
		<path fill="#DAF0F2" d="M293.586,589.533c0,0,0-0.037-0.346,0c-0.873,0.092-0.24-0.274-0.24-0.734c0-0.457,0-1.631,0-1.631
			s-2.861-1.117-3.254-1.21c-0.388-0.091-1.725-1.191-1.797-1.467c-0.071-0.275-0.555,0.274-0.779,0
			c-0.224-0.275-0.072,1.284-0.615,1.376c-0.546,0.091-1.127,0.184-1.596,0.273c-0.463,0.092-0.641,1.026-1.492,1.026
			c-0.855,0-1.329-0.109-1.641,0.531c-0.308,0.643,1.369,1.376,0.448,1.56c-0.919,0.184-2.242-0.733-2.242-0.733
			s-0.466-1.152,0.001-1.356c0.465-0.202,1.785-0.569,2.328-0.844c0.545-0.275,0.545-0.275,1.242-1.283
			c0.699-1.009,0.309-1.373,0.775-1.648c0.467-0.273,0.234-0.641,1.242-0.825c1.006-0.184,1.695-0.55,2.014-0.457
			c0.313,0.091,0.547,0.457,0.702,0.824c0.156,0.367,1.088,0,1.63,0.733c0.543,0.732,0.931,0.73,1.476,1.373
			c0.542,0.642,1.085,0.642,1.552,1.283c0.465,0.642,0.854,0.734,1.01,1.559c0.152,0.824,0.896,1.588,0.486,1.666
			C294.08,589.625,293.586,589.533,293.586,589.533z"/>
	</g>
	<g>
		<path fill="#DAF0F2" d="M282.401,594.021c-0.698,0.139-15.312,12.166-15.312,12.166s-1.45,0.562-1.582,0
			c-0.133-0.564,16.195-12.621,16.195-12.621L282.401,594.021z"/>
	</g>
	<g>
		<path fill="#DAF0F2" d="M294.332,609.023c0,0,0.798,0.603,0.195,1.43c-0.987,1.364-0.527,4.586-0.527,4.586v3.898
			c0,0-1.63,0.074-2.291,0c-0.659-0.075-0.098-7.741-0.098-7.741s-1.371-0.387-1.505-0.797c-0.13-0.409-0.023-2.048-0.023-2.048
			l4.276-0.801L294.332,609.023z"/>
	</g>
	<g>
		<path fill="#DAF0F2" d="M281.562,609.023c0,0,0.183,0.603-0.419,1.43c-0.986,1.364-1.143,4.586-1.143,4.586v3.898
			c0,0-1.016,0.074-1.674,0c-0.664-0.075,0.202-7.741,0.202-7.741s-1.214-0.387-1.345-0.797c-0.131-0.409,0.05-2.048,0.05-2.048
			l4.316-0.801L281.562,609.023z"/>
	</g>
	<g>
		<path fill="#DAF0F2" d="M228.273,609.023c0,0,0.326,0.603-0.273,1.43c-0.988,1.364-1,4.586-1,4.586v3.898c0,0-1.16,0.074-1.818,0
			c-0.662-0.075,0.132-7.741,0.132-7.741s-1.255-0.387-1.386-0.797c-0.133-0.409,0.032-2.048,0.032-2.048l4.308-0.801
			L228.273,609.023z"/>
	</g>
	<g>
		<path fill="#DAF0F2" d="M274.658,610h-52.409c0,0-2.843-3.232,0-3.271c2.843-0.043,52.432,0.271,52.432,0.271L274.658,610z"/>
	</g>
	<g>
		<path fill="#DAF0F2" d="M228,608.007v-5.008c0,0-0.37-1.904-1.532-1.596c-0.364,0.098-1.247,0.424-1.47,1.366
			c-0.506,2.096-0.159,5.694-0.159,5.694L228,608.007z"/>
	</g>
</g>
<g>
	<g>
		<polygon fill="#DAF0F2" points="1272,599 1248.886,599 1249.863,602 1272,602 		"/>
	</g>
	<g>
		<path fill="#DAF0F2" d="M1209.567,614.262c0.005-0.067,0.098-1.717,0.015-3.104c-0.084-1.374,0.252-4.581,0.53-5.049
			c0.341-0.176,2.511,0.056,3.812,0.189l0.251,0.025c0.896,0.099,1.565-0.093,2.003-0.555c0.527-0.556,0.465-1.269,0.453-1.35
			l-1.146,0.141l0.573-0.067l-0.573,0.059c0,0.009,0.014,0.235-0.138,0.393c-0.178,0.175-0.549,0.239-1.057,0.193l-0.251-0.027
			c-2.916-0.308-4.253-0.381-4.791,0.209c-0.678,0.737-0.878,4.973-0.821,5.914c0.077,1.313-0.013,2.942-0.014,2.958
			L1209.567,614.262z"/>
	</g>
	<g>
		<rect x="1284" y="605" fill="#DAF0F2" width="1" height="13"/>
	</g>
	<g>
		<rect x="1281" y="605" fill="#DAF0F2" width="3" height="13"/>
	</g>
	<g>
		<path fill="#DAF0F2" d="M1286.76,610h-25.102c0,0-1.16-1.301-0.823-2.344c0.338-1.047,0.846-1.656,0.846-1.656h26.402
			c0,0,0.531,1.143,0.531,2C1288.614,609.367,1286.76,610,1286.76,610z"/>
	</g>
	<g>
		<path fill="#DAF0F2" d="M1280,606.188V594h1.037c0,0,1.06-1.055,0.364-1.145c-0.702-0.091-1.401,0.171-1.401,0.171v-7.334
			l-5.77-1.812l-6.23,1.812v6.377c0,0-1.109,0.062-1.457,0.149c-0.346,0.088-0.485,0.536-0.136,0.808
			c0.346,0.27,1.593,0.539,1.593,0.539v13.53L1280,606.188z"/>
	</g>
	<g>
		<path fill="#DAF0F2" d="M1280.586,589.533c0,0,0-0.037-0.346,0c-0.873,0.092-0.24-0.274-0.24-0.734c0-0.457,0-1.631,0-1.631
			s-2.861-1.117-3.254-1.21c-0.388-0.091-1.725-1.191-1.797-1.467c-0.071-0.275-0.555,0.274-0.779,0
			c-0.224-0.275-0.072,1.284-0.615,1.376c-0.546,0.091-1.127,0.184-1.596,0.273c-0.463,0.092-0.641,1.026-1.492,1.026
			c-0.854,0-1.328-0.109-1.641,0.531c-0.308,0.643,1.369,1.376,0.448,1.56c-0.919,0.184-2.242-0.733-2.242-0.733
			s-0.466-1.152,0.001-1.356c0.465-0.202,1.785-0.569,2.328-0.844c0.545-0.275,0.545-0.275,1.242-1.283
			c0.698-1.009,0.309-1.373,0.774-1.648c0.468-0.273,0.234-0.641,1.242-0.825c1.006-0.184,1.695-0.55,2.014-0.457
			c0.313,0.091,0.548,0.457,0.702,0.824c0.156,0.367,1.088,0,1.63,0.733c0.543,0.732,0.932,0.73,1.477,1.373
			c0.542,0.642,1.085,0.642,1.552,1.283c0.465,0.642,0.854,0.734,1.01,1.559c0.152,0.824,0.896,1.588,0.486,1.666
			C1281.08,589.625,1280.586,589.533,1280.586,589.533z"/>
	</g>
	<g>
		<path fill="#DAF0F2" d="M1269.401,594.021c-0.698,0.139-15.312,12.166-15.312,12.166s-1.45,0.562-1.582,0
			c-0.133-0.564,16.195-12.621,16.195-12.621L1269.401,594.021z"/>
	</g>
	<g>
		<path fill="#DAF0F2" d="M1281.332,609.023c0,0,0.798,0.603,0.195,1.43c-0.987,1.364-0.527,4.586-0.527,4.586v3.898
			c0,0-1.63,0.074-2.291,0c-0.659-0.075-0.098-7.741-0.098-7.741s-1.371-0.387-1.506-0.797c-0.13-0.409-0.022-2.048-0.022-2.048
			l4.276-0.801L1281.332,609.023z"/>
	</g>
	<g>
		<path fill="#DAF0F2" d="M1268.562,609.023c0,0,0.183,0.603-0.42,1.43c-0.985,1.364-1.143,4.586-1.143,4.586v3.898
			c0,0-1.016,0.074-1.674,0c-0.664-0.075,0.202-7.741,0.202-7.741s-1.214-0.387-1.345-0.797c-0.131-0.409,0.05-2.048,0.05-2.048
			l4.315-0.801L1268.562,609.023z"/>
	</g>
	<g>
		<path fill="#DAF0F2" d="M1215.273,609.023c0,0,0.325,0.603-0.273,1.43c-0.988,1.364-1,4.586-1,4.586v3.898c0,0-1.16,0.074-1.818,0
			c-0.662-0.075,0.133-7.741,0.133-7.741s-1.256-0.387-1.387-0.797c-0.133-0.409,0.032-2.048,0.032-2.048l4.308-0.801
			L1215.273,609.023z"/>
	</g>
	<g>
		<path fill="#DAF0F2" d="M1261.658,610h-52.409c0,0-2.843-3.232,0-3.271c2.843-0.043,52.432,0.271,52.432,0.271L1261.658,610z"/>
	</g>
	<g>
		<path fill="#DAF0F2" d="M1215,608.007v-5.008c0,0-0.37-1.904-1.532-1.596c-0.364,0.098-1.247,0.424-1.47,1.366
			c-0.506,2.096-0.159,5.694-0.159,5.694L1215,608.007z"/>
	</g>
</g>
<g>
	<g>
		<polygon fill="#DAF0F2" points="265,606 283.044,606 282.271,608 265,608 		"/>
	</g>
	<g>
		<path fill="#DAF0F2" d="M314.151,617.368c-0.004-0.053-0.077-1.313-0.013-2.375c0.066-1.051-0.198-3.505-0.42-3.862
			c-0.27-0.134-1.985,0.042-3.016,0.146l-0.198,0.02c-0.708,0.075-1.239-0.071-1.585-0.424c-0.417-0.425-0.367-0.971-0.357-1.032
			l0.906,0.106l-0.454-0.053l0.454,0.046c0,0.006-0.011,0.181,0.108,0.3c0.141,0.134,0.435,0.184,0.836,0.147l0.198-0.021
			c2.308-0.234,3.363-0.291,3.791,0.16c0.536,0.563,0.693,3.805,0.648,4.523c-0.062,1.006,0.01,2.252,0.011,2.264L314.151,617.368z"
			/>
	</g>
	<g>
		<rect x="254" y="610" fill="#DAF0F2" width="1" height="10"/>
	</g>
	<g>
		<rect x="255" y="610" fill="#DAF0F2" width="2" height="10"/>
	</g>
	<g>
		<path fill="#DAF0F2" d="M253.079,614h19.859c0,0,0.917-0.965,0.651-1.763c-0.268-0.802-0.669-1.237-0.669-1.237h-20.889
			c0,0-0.421,0.844-0.421,1.5C251.611,613.546,253.079,614,253.079,614z"/>
	</g>
	<g>
		<path fill="#DAF0F2" d="M259,611.189V602h-1.394c0,0-0.552-0.875-0.001-0.943c0.556-0.067,1.395,0.064,1.395,0.064v-5.611
			l4.318-1.386L268,595.51v4.879c0,0,0.838,0.047,1.113,0.115c0.273,0.067,0.403,0.41,0.127,0.617
			c-0.273,0.206-1.24,0.412-1.24,0.412v10.353L259,611.189z"/>
	</g>
	<g>
		<path fill="#DAF0F2" d="M257.963,598.448c0,0,0.287-0.028,0.561,0c0.691,0.069,0.477-0.21,0.477-0.562c0-0.35,0-1.248,0-1.248
			s1.978-0.854,2.288-0.926c0.307-0.069,1.222-0.911,1.278-1.122s0.367,0.211,0.544,0c0.179-0.211,0.022,0.982,0.452,1.053
			c0.432,0.069,0.874,0.142,1.244,0.21c0.366,0.069,0.497,0.785,1.171,0.785c0.678,0,1.048-0.084,1.294,0.406
			c0.244,0.492-1.085,1.053-0.356,1.193c0.727,0.14,1.772-0.562,1.772-0.562s0.368-0.882-0.001-1.038
			c-0.368-0.154-1.413-0.436-1.843-0.646c-0.431-0.211-0.431-0.211-0.982-0.981c-0.553-0.771-0.244-1.051-0.613-1.262
			c-0.369-0.21-0.186-0.49-0.982-0.632c-0.797-0.141-1.342-0.42-1.594-0.351c-0.248,0.069-0.433,0.351-0.556,0.631
			c-0.124,0.281-0.86,0-1.289,0.562c-0.43,0.561-0.737,0.559-1.168,1.051c-0.429,0.49-0.858,0.49-1.228,0.981
			c-0.368,0.491-0.676,0.562-0.799,1.191c-0.121,0.631-0.709,1.216-0.385,1.274C257.572,598.519,257.963,598.448,257.963,598.448z"
			/>
	</g>
	<g>
		<path fill="#DAF0F2" d="M266.812,601.882c0.552,0.105,12.113,9.309,12.113,9.309s1.148,0.431,1.253,0
			c0.104-0.433-12.814-9.656-12.814-9.656L266.812,601.882z"/>
	</g>
	<g>
		<path fill="#DAF0F2" d="M257.373,613.36c0,0-0.449,0.461,0.027,1.094c0.781,1.044,0.6,3.509,0.6,3.509v2.982
			c0,0,1.107,0.058,1.631,0c0.521-0.059-0.014-5.924-0.014-5.924s1.039-0.295,1.145-0.608c0.104-0.313-0.004-1.566-0.004-1.566
			l-3.395-0.611L257.373,613.36z"/>
	</g>
	<g>
		<path fill="#DAF0F2" d="M267.477,613.36c0,0,0,0.461,0.475,1.094c0.781,1.044,1.049,3.509,1.049,3.509v2.982
			c0,0,0.66,0.058,1.182,0c0.523-0.059-0.233-5.924-0.233-5.924s0.925-0.295,1.028-0.608c0.104-0.313-0.058-1.566-0.058-1.566
			l-3.425-0.611L267.477,613.36z"/>
	</g>
	<g>
		<path fill="#DAF0F2" d="M309.637,613.36c0,0-0.08,0.461,0.396,1.094c0.782,1.044,0.969,3.509,0.969,3.509v2.982
			c0,0,0.74,0.058,1.262,0c0.522-0.059-0.193-5.924-0.193-5.924s0.947-0.295,1.052-0.608s-0.048-1.566-0.048-1.566l-3.419-0.611
			L309.637,613.36z"/>
	</g>
	<g>
		<path fill="#DAF0F2" d="M272.938,614h41.465c0,0,2.249-2.42,0-2.449c-2.249-0.033-41.482,0.181-41.482,0.181L272.938,614z"/>
	</g>
	<g>
		<path fill="#DAF0F2" d="M310,612.582v-3.831c0,0,0.219-1.457,1.139-1.221c0.287,0.073,0.95,0.323,1.126,1.046
			c0.4,1.603,0.182,4.355,0.182,4.355L310,612.582z"/>
	</g>
</g>
<g>
	<g>
		<polygon fill="#DAF0F2" points="959,606 977.044,606 976.271,608 959,608 		"/>
	</g>
	<g>
		<path fill="#DAF0F2" d="M1008.151,617.368c-0.005-0.053-0.077-1.313-0.013-2.375c0.066-1.051-0.199-3.505-0.42-3.862
			c-0.27-0.134-1.986,0.042-3.016,0.146l-0.198,0.02c-0.708,0.075-1.239-0.071-1.585-0.424c-0.417-0.425-0.367-0.971-0.357-1.032
			l0.906,0.106l-0.454-0.053l0.454,0.046c0,0.006-0.011,0.181,0.108,0.3c0.141,0.134,0.435,0.184,0.836,0.147l0.198-0.021
			c2.308-0.234,3.363-0.291,3.791,0.16c0.535,0.563,0.693,3.805,0.648,4.523c-0.062,1.006,0.01,2.252,0.012,2.264L1008.151,617.368z
			"/>
	</g>
	<g>
		<rect x="948" y="610" fill="#DAF0F2" width="1" height="10"/>
	</g>
	<g>
		<rect x="949" y="610" fill="#DAF0F2" width="2" height="10"/>
	</g>
	<g>
		<path fill="#DAF0F2" d="M947.079,614h19.858c0,0,0.918-0.965,0.651-1.763c-0.268-0.802-0.669-1.237-0.669-1.237h-20.889
			c0,0-0.421,0.844-0.421,1.5C945.611,613.546,947.079,614,947.079,614z"/>
	</g>
	<g>
		<path fill="#DAF0F2" d="M953,611.189V602h-1.395c0,0-0.552-0.875,0-0.943c0.556-0.067,1.395,0.064,1.395,0.064v-5.611l4.318-1.386
			L962,595.51v4.879c0,0,0.838,0.047,1.113,0.115c0.272,0.067,0.402,0.41,0.127,0.617c-0.273,0.206-1.24,0.412-1.24,0.412v10.353
			L953,611.189z"/>
	</g>
	<g>
		<path fill="#DAF0F2" d="M951.963,598.448c0,0,0.287-0.028,0.561,0c0.691,0.069,0.478-0.21,0.478-0.562c0-0.35,0-1.248,0-1.248
			s1.978-0.854,2.288-0.926c0.307-0.069,1.222-0.911,1.278-1.122c0.056-0.211,0.366,0.211,0.544,0
			c0.179-0.211,0.021,0.982,0.451,1.053c0.433,0.069,0.875,0.142,1.244,0.21c0.366,0.069,0.497,0.785,1.172,0.785
			c0.678,0,1.048-0.084,1.294,0.406c0.243,0.492-1.085,1.053-0.356,1.193c0.727,0.14,1.771-0.562,1.771-0.562s0.368-0.882,0-1.038
			c-0.368-0.154-1.413-0.436-1.844-0.646c-0.431-0.211-0.431-0.211-0.981-0.981c-0.554-0.771-0.244-1.051-0.613-1.262
			c-0.369-0.21-0.186-0.49-0.981-0.632c-0.798-0.141-1.343-0.42-1.595-0.351c-0.248,0.069-0.433,0.351-0.556,0.631
			c-0.124,0.281-0.86,0-1.289,0.562c-0.43,0.561-0.737,0.559-1.168,1.051c-0.43,0.49-0.858,0.49-1.229,0.981
			c-0.367,0.491-0.676,0.562-0.799,1.191c-0.121,0.631-0.709,1.216-0.385,1.274C951.572,598.519,951.963,598.448,951.963,598.448z"
			/>
	</g>
	<g>
		<path fill="#DAF0F2" d="M960.812,601.882c0.552,0.105,12.112,9.309,12.112,9.309s1.148,0.431,1.253,0
			c0.104-0.433-12.813-9.656-12.813-9.656L960.812,601.882z"/>
	</g>
	<g>
		<path fill="#DAF0F2" d="M951.373,613.36c0,0-0.449,0.461,0.027,1.094c0.78,1.044,0.6,3.509,0.6,3.509v2.982
			c0,0,1.107,0.058,1.631,0c0.521-0.059-0.014-5.924-0.014-5.924s1.039-0.295,1.145-0.608c0.104-0.313-0.004-1.566-0.004-1.566
			l-3.395-0.611L951.373,613.36z"/>
	</g>
	<g>
		<path fill="#DAF0F2" d="M961.477,613.36c0,0,0,0.461,0.476,1.094c0.78,1.044,1.049,3.509,1.049,3.509v2.982
			c0,0,0.66,0.058,1.182,0c0.523-0.059-0.232-5.924-0.232-5.924s0.925-0.295,1.028-0.608s-0.059-1.566-0.059-1.566l-3.425-0.611
			L961.477,613.36z"/>
	</g>
	<g>
		<path fill="#DAF0F2" d="M1003.637,613.36c0,0-0.08,0.461,0.396,1.094c0.782,1.044,0.969,3.509,0.969,3.509v2.982
			c0,0,0.74,0.058,1.262,0c0.522-0.059-0.193-5.924-0.193-5.924s0.948-0.295,1.052-0.608c0.105-0.313-0.048-1.566-0.048-1.566
			l-3.419-0.611L1003.637,613.36z"/>
	</g>
	<g>
		<path fill="#DAF0F2" d="M966.938,614h41.466c0,0,2.249-2.42,0-2.449c-2.249-0.033-41.482,0.181-41.482,0.181L966.938,614z"/>
	</g>
	<g>
		<path fill="#DAF0F2" d="M1004,612.582v-3.831c0,0,0.219-1.457,1.139-1.221c0.287,0.073,0.95,0.323,1.126,1.046
			c0.4,1.603,0.182,4.355,0.182,4.355L1004,612.582z"/>
	</g>
</g>
<path fill="#97CAD5" d="M615.322,610.775c0,0-0.888,1.045,0.188,2.478c1.774,2.367,2.49,24.956,2.49,24.956v-0.241
	c0,0,2.383,0.131,3.565,0c1.184-0.131-1.09-23.427-1.09-23.427s2.323-0.67,2.561-1.38c0.236-0.711-0.022-3.551-0.022-3.551
	l-7.703-1.39L615.322,610.775z"/>
<path fill="#97CAD5" d="M735.322,610.775c0,0-0.888,1.045,0.188,2.478c1.774,2.367,2.49,24.956,2.49,24.956v-0.241
	c0,0,2.383,0.131,3.565,0c1.184-0.131-1.09-23.427-1.09-23.427s2.323-0.67,2.561-1.38c0.236-0.711-0.022-3.551-0.022-3.551
	l-7.703-1.39L735.322,610.775z"/>
<path fill="#97CAD5" d="M551.322,610.775c0,0-0.888,1.045,0.188,2.478c1.774,2.367,2.49,24.956,2.49,24.956v-0.241
	c0,0,2.383,0.131,3.565,0c1.184-0.131-1.09-23.427-1.09-23.427s2.323-0.67,2.561-1.38c0.236-0.711-0.022-3.551-0.022-3.551
	l-7.703-1.39L551.322,610.775z"/>
<path fill="#97CAD5" d="M672.322,610.775c0,0-0.888,1.045,0.188,2.478c1.774,2.367,2.49,24.956,2.49,24.956v-0.241
	c0,0,2.383,0.131,3.565,0c1.184-0.131-1.09-23.427-1.09-23.427s2.323-0.67,2.561-1.38c0.236-0.711-0.022-3.551-0.022-3.551
	l-7.703-1.39L672.322,610.775z"/>
<path fill="#97CAD5" d="M709.322,610.775c0,0-0.888,1.045,0.188,2.478c1.774,2.367,2.49,24.956,2.49,24.956v-0.241
	c0,0,2.383,0.131,3.565,0c1.184-0.131-1.09-23.427-1.09-23.427s2.323-0.67,2.561-1.38c0.236-0.711-0.022-3.551-0.022-3.551
	l-7.703-1.39L709.322,610.775z"/>
<path fill="#97CAD5" d="M895.322,610.775c0,0-0.888,1.045,0.188,2.478c1.774,2.367,1.49,7.956,1.49,7.956v20.759
	c0,0,2.383,0.131,3.565,0c1.184-0.131-0.09-27.427-0.09-27.427s2.323-0.67,2.561-1.38c0.236-0.711-0.022-3.551-0.022-3.551
	l-7.703-1.39L895.322,610.775z"/>
<path fill="#97CAD5" d="M869.322,610.775c0,0,0.978,1.567,1.127,3.353c0.082,0.982,0.551,7.081,0.551,7.081v19.759
	c0,0,2.383,0.131,3.565,0c1.184-0.131-0.089-26.427-0.089-26.427s2.322-0.67,2.56-1.38c0.236-0.711-0.022-3.551-0.022-3.551
	l-7.702-1.39L869.322,610.775z"/>
<path fill="#97CAD5" d="M591.632,610.775c0,0,0.923,1.045-0.16,2.478c-1.788,2.367-0.472,24.956-0.472,24.956v-0.241
	c0,0-2.431,0.131-3.623,0c-1.191-0.131-0.925-23.427-0.925-23.427s-2.349-0.67-2.587-1.38c-0.238-0.711,0.02-3.551,0.02-3.551
	l7.762-1.39L591.632,610.775z"/>
<path fill="#97CAD5" d="M792.322,610.775c0,0-0.888,1.045,0.188,2.478c1.774,2.367,2.49,24.956,2.49,24.956v-0.241
	c0,0,2.383,0.131,3.565,0c1.184-0.131-1.09-23.427-1.09-23.427s2.323-0.67,2.561-1.38c0.236-0.711-0.022-3.551-0.022-3.551
	l-7.703-1.39L792.322,610.775z"/>
<path fill="#97CAD5" d="M768.632,610.775c0,0,0.923,1.045-0.16,2.478c-1.788,2.367-0.472,24.956-0.472,24.956v-0.241
	c0,0-2.431,0.131-3.623,0c-1.191-0.131-0.925-23.427-0.925-23.427s-2.349-0.67-2.587-1.38c-0.238-0.711,0.02-3.551,0.02-3.551
	l7.762-1.39L768.632,610.775z"/>
<path fill="#97CAD5" d="M510.329,611h171.795c0,0,5.048-4.871-0.048-4.943c-5.096-0.071-173.213,0.075-173.213,0.075
	s-2.14,0.219-1.863,2.382S510.329,611,510.329,611z"/>
<path fill="#97CAD5" d="M701.329,611h171.795c0,0,5.048-4.871-0.048-4.943c-5.096-0.071-173.213,0.075-173.213,0.075
	s-2.14,0.219-1.863,2.382S701.329,611,701.329,611z"/>
<path fill="#97CAD5" d="M673,609.012v-8.688c0,0,1.069-3.301,3.152-2.766c0.646,0.167,2.438,0.733,2.843,2.369
	c0.903,3.633-0.024,9.873-0.024,9.873L673,609.012z"/>
<path fill="#97CAD5" d="M521.618,610.775c0,0,0.998,1.045-0.127,2.478c-1.858,2.367-0.491,24.956-0.491,24.956v-0.241
	c0,0-2.564,0.131-3.804,0c-1.238-0.131-0.94-23.427-0.94-23.427s-2.45-0.67-2.698-1.38c-0.247-0.711,0.016-3.551,0.016-3.551
	l8.062-1.39L521.618,610.775z"/>
<path fill="#97CAD5" d="M522,609.012v-8.688c0,0-1.142-3.301-3.323-2.766c-0.677,0.167-2.562,0.733-2.986,2.369
	c-0.947,3.633,0.042,9.873,0.042,9.873L522,609.012z"/>
<path fill="#97CAD5" d="M527,606v-14.048l-3.889-2l1.943-4.316l1.944,2.316v-17l-0.046-15.788c0,0-5.358,2.573-4.954,0
	s1.143-7.173,2.489-7.661c1.346-0.488,4.847-2.632,7.813-3.919c2.968-1.287,8.476-2.816,9.581-3.124
	c1.106-0.308,10.891-0.551,13.289,0c2.399,0.551,9.723,5.269,9.723,5.269s7.973,3.859,5.653,5.575
	c-2.318,1.716-4.55,3.002-4.55,3.002v23.646c0,0,3.205,2.466,2.776,3.349c-0.43,0.883-3.774,4.335-3.774,4.335V606"/>
<path fill="#97CAD5" d="M573,606.952v-27c0,0,1.585-3.104,2.658-3.082s11.851-2.028,17.397,0.069c5.548,2.097,0,31.078,0,31.078
	L573,606.952z"/>
<path fill="none" stroke="#97CAD5" stroke-miterlimit="10" d="M523.474,552.014c0,0,0.026,11.084,0.026,15.481
	c0,4.396,0,10.505,0,10.505"/>
<path fill="#97CAD5" d="M570.614,592.006c-0.604,2.188,0.357,4.911,0.357,4.911l24.691-2.455l1.796-4.51L570.614,592.006z"/>
<path fill="#97CAD5" d="M599.342,551.057c-0.486,0.769-1.626,0.934-1.626,0.934v-1.59l-3.094,0.795l-1.161-1.781
	c2.301-0.985,2.605-0.875,2.941-1.644c0.336-0.768-1.034-0.877-0.512-1.314c0.521-0.438,1.267-1.096,2.767-1.863
	c1.5-0.767,0.685-3.178,2.477-3.944c1.791-0.768,6.352-1.314,9.606-2.082c3.258-0.769,6.838-2.41,10.908-1.862
	c4.069,0.549,8.791,2.52,12.21,2.958c3.419,0.438,4.885,1.097,7.327,2.083s1.965,1.424,2.61,1.973c0.646,0.548-1.785,1.753,0,1.974
	c1.785,0.219,1.947,0.876,1.135,0.985c-0.814,0.109-1.619-0.109-1.619-0.109s0.822,0.657,0,0.986
	c-0.823,0.328-2.777-0.109-2.452,0.22c0.326,0.328,1.303,0.548,0.65,0.985c-0.651,0.438-0.183,0.984-1.393,0.767
	c-1.212-0.219-4.471-1.096-6.585-1.096c-2.115,0-8.303,0.876-12.048,1.096s-11.561,0.548-13.024,0.548
	C606.995,550.07,599.342,551.057,599.342,551.057z"/>
<path fill="none" stroke="#97CAD5" stroke-width="0.7087" stroke-miterlimit="10" d="M589.544,562.021c0,0,9.494-5.456,11.456-8.212
	"/>
<path fill="#97CAD5" d="M637.469,565.455c0.531,1.285,6.209,2.075,6.209,2.075s-0.736,0.423-1.807,1.143s-4.402,1.822-4.402,1.822
	V565.455z"/>
<g>
	<path fill="#97CAD5" d="M604.874,603.312c0-0.033,0.004-0.097,0.015-0.189c0.008-0.093,0.013-0.156,0.013-0.189l0.509,0.509h12.71
		c0,0.05,0.035,0.139,0.102,0.266c0.068,0.129,0.118,0.207,0.153,0.241c0.034,0.019,0.076,0.006,0.127-0.036
		s0.093-0.064,0.127-0.064v-2.439l0.635-0.509v-5.849l0.383,3.56c0.271-0.051,0.444,0.024,0.521,0.229s0.136,0.44,0.177,0.712
		c0.043,0.271,0.111,0.521,0.204,0.75c0.095,0.229,0.302,0.343,0.624,0.343h2.796c-0.017-0.22,0.024-0.361,0.126-0.431
		c0.104-0.068,0.23-0.103,0.384-0.103c0.118,0,0.198,0.029,0.24,0.089c0.042,0.059,0.076,0.124,0.102,0.19
		c0.024,0.067,0.057,0.131,0.092,0.191c0.032,0.059,0.101,0.087,0.201,0.087c0.017,0,0.037-0.003,0.062-0.011
		c0.025-0.011,0.047-0.016,0.065-0.016c0.101-0.253,0.187-0.457,0.253-0.609c0.068-0.152,0.145-0.275,0.229-0.369
		c0.085-0.092,0.188-0.176,0.307-0.252c0.117-0.076,0.278-0.176,0.481-0.293c0.051-0.034,0.18-0.118,0.381-0.254v-4.576l0.383,4.703
		h2.033c0.018,0,0.056,0.078,0.113,0.239c0.062,0.162,0.105,0.293,0.142,0.396c0.033,0.084,0.081,0.252,0.14,0.507
		s0.098,0.424,0.114,0.508h2.975c0-0.118,0.015-0.211,0.038-0.277c0.025-0.068,0.043-0.125,0.052-0.166
		c0.009-0.044-0.005-0.084-0.038-0.128c-0.033-0.042-0.11-0.105-0.229-0.19c-0.051-0.033-0.136-0.084-0.254-0.151
		c-0.119-0.066-0.246-0.144-0.381-0.229c-0.139-0.084-0.265-0.162-0.384-0.229c-0.116-0.067-0.202-0.118-0.254-0.151v-0.28
		c0.322,0,0.632,0.035,0.931,0.104c0.295,0.067,0.588,0.147,0.875,0.24c0.289,0.095,0.585,0.173,0.89,0.241
		c0.306,0.068,0.636,0.102,0.991,0.102v1.118h2.67c0.136-0.234,0.283-0.466,0.445-0.687c0.16-0.22,0.352-0.413,0.571-0.585
		c-0.236-0.169-0.436-0.335-0.598-0.495c-0.161-0.16-0.242-0.386-0.242-0.673c0.052,0,0.142,0.004,0.269,0.013
		c0.126,0.008,0.264,0.021,0.406,0.039c0.145,0.017,0.279,0.033,0.405,0.051c0.127,0.018,0.217,0.033,0.269,0.051
		c0.118,0.033,0.275,0.111,0.47,0.241c0.195,0.127,0.293,0.216,0.293,0.268v1.524c0.051,0,0.136,0.019,0.255,0.052
		c0.119,0.032,0.246,0.065,0.382,0.102c0.136,0.033,0.263,0.064,0.38,0.09c0.119,0.025,0.203,0.027,0.255,0.011
		c0.12-0.051,0.237-0.159,0.355-0.329s0.246-0.343,0.381-0.521c0.137-0.179,0.28-0.34,0.434-0.482
		c0.152-0.145,0.313-0.217,0.482-0.217c0.101,0,0.19,0.08,0.268,0.242c0.075,0.16,0.145,0.334,0.204,0.521
		c0.06,0.187,0.113,0.449,0.164,0.786h0.253v-2.796l-0.508-0.253l0.508-0.256v-3.126c-0.186,0-0.315,0.018-0.393,0.051
		c-0.077,0.035-0.142,0.052-0.191,0.052s-0.122-0.025-0.217-0.076c-0.091-0.051-0.248-0.162-0.47-0.331h1.221
		c0.05-0.186,0.068-0.313,0.05-0.381c-0.016-0.034-0.062-0.12-0.139-0.255c-0.077-0.136-0.114-0.22-0.114-0.253
		c0-0.035,0.033-0.087,0.104-0.153c0.066-0.067,0.117-0.104,0.149-0.104c-0.22,0.067-0.442,0.052-0.673-0.051
		c-0.229-0.102-0.427-0.211-0.598-0.331h1.908v-2.414l0.381,2.288c0.254,0.034,0.423,0.052,0.507,0.052
		c0.204,0,0.426-0.008,0.661-0.025c0.238-0.018,0.441-0.11,0.61-0.28c0.019,0.018,0.029,0.057,0.038,0.116
		c0.01,0.059,0.014,0.104,0.014,0.139c0,0.018-0.08,0.095-0.241,0.229c-0.162,0.135-0.34,0.277-0.534,0.432
		c-0.195,0.153-0.373,0.292-0.535,0.419c-0.159,0.128-0.248,0.191-0.266,0.191c-0.017,0.017-0.064,0.017-0.141,0
		c-0.074-0.018-0.156-0.038-0.24-0.063c-0.086-0.024-0.162-0.051-0.229-0.076c-0.066-0.024-0.117-0.039-0.152-0.039v0.435h1.525
		l0.255-0.51c0.051,0.135,0.113,0.274,0.19,0.42c0.076,0.143,0.182,0.258,0.316,0.342l-1.016,1.018
		c0.031,0.035,0.084,0.115,0.151,0.243c0.066,0.127,0.102,0.214,0.102,0.266c0,0.018-0.034,0.057-0.102,0.114
		c-0.068,0.059-0.12,0.106-0.151,0.142c-0.053,0.032-0.175,0.116-0.37,0.253c-0.193,0.138-0.326,0.222-0.394,0.257
		c0.033,0,0.098,0.002,0.188,0.011c0.095,0.008,0.157,0.014,0.191,0.014c0.188,0,0.343-0.014,0.471-0.038
		c0.127-0.026,0.267-0.104,0.42-0.242c-0.018,0.257-0.061,0.438-0.127,0.547c-0.068,0.111-0.162,0.2-0.279,0.267
		c-0.119,0.068-0.251,0.129-0.396,0.181c-0.145,0.051-0.3,0.143-0.47,0.277c0.033,0,0.119,0.005,0.254,0.016
		c0.135,0.008,0.222,0.011,0.253,0.011c0.188,0,0.366-0.009,0.534-0.025c0.17-0.016,0.331-0.101,0.482-0.253
		c0,0.018,0.006,0.055,0.015,0.113c0.009,0.061,0.013,0.104,0.013,0.14c0,0.153-0.062,0.28-0.191,0.382
		c-0.127,0.103-0.273,0.19-0.443,0.269c-0.17,0.076-0.339,0.144-0.509,0.203c-0.169,0.059-0.307,0.114-0.406,0.166h0.254h0.253
		c0.086-0.019,0.257-0.058,0.51-0.116c0.255-0.059,0.423-0.105,0.508-0.141c0.035,0.034,0.086,0.115,0.153,0.241
		c0.066,0.126,0.102,0.218,0.102,0.268c0,0.035-0.034,0.076-0.102,0.127c-0.067,0.053-0.118,0.095-0.153,0.129h-0.253
		c-0.051,0.035-0.148,0.085-0.293,0.152c-0.144,0.066-0.302,0.144-0.472,0.229c-0.167,0.084-0.324,0.16-0.468,0.229
		c-0.146,0.068-0.243,0.119-0.294,0.153c0.051,0,0.156,0.002,0.318,0.012c0.16,0.009,0.267,0.014,0.316,0.014
		c0.338,0,0.623-0.024,0.852-0.077c0.229-0.051,0.496-0.204,0.802-0.457c0.05,0.236,0.004,0.445-0.142,0.621
		c-0.143,0.18-0.315,0.332-0.521,0.459s-0.415,0.228-0.636,0.305c-0.22,0.078-0.382,0.123-0.482,0.141h1.523l0.256-0.381h1.651
		v-1.397l0.383,1.525c0.031-0.034,0.08-0.118,0.14-0.256c0.06-0.136,0.097-0.22,0.113-0.255c0.137-0.862,0.222-1.795,0.256-2.795
		c0.032-1,0.032-1.933,0-2.797c0.149-0.136,0.293-0.215,0.419-0.242c0.127-0.023,0.284-0.038,0.472-0.038
		c0.186,0,0.384,0.024,0.598,0.076c0.212,0.052,0.317,0.194,0.317,0.434c0,0.033-0.005,0.084-0.015,0.151
		c-0.009,0.066-0.014,0.109-0.014,0.126c0,0.02-0.037,0.062-0.112,0.13c-0.076,0.067-0.123,0.109-0.141,0.125
		c-0.035,0.068-0.01,0.195,0.076,0.381h0.938l-2.032,0.384v0.277c0.034,0,0.119-0.003,0.254-0.011
		c0.137-0.01,0.221-0.015,0.255-0.015c0.067,0,0.188,0.015,0.355,0.04c0.17,0.023,0.352,0.05,0.547,0.075
		c0.193,0.024,0.378,0.051,0.546,0.075c0.17,0.024,0.278,0.048,0.331,0.065c-0.256,0.065-0.496,0.205-0.726,0.418
		c-0.229,0.211-0.411,0.411-0.546,0.597c0,0.086-0.006,0.256-0.013,0.509c-0.01,0.253-0.013,0.426-0.013,0.511
		c0,0.389,0.009,0.735,0.024,1.042c0.017,0.306,0.102,0.634,0.253,0.99c0.035,0.033,0.076,0.052,0.128,0.052
		c0.322-0.427,0.576-0.777,0.764-1.056c0.186-0.279,0.359-0.543,0.521-0.788c0.162-0.246,0.241-0.41,0.241-0.498v1.02h0.762v-2.543
		c0-0.102,0.077-0.174,0.231-0.217c0.152-0.041,0.278-0.062,0.379-0.062h0.178c0.308,0,0.502,0.136,0.587,0.405
		c0.084,0.271,0.122,0.582,0.113,0.928c-0.008,0.351-0.042,0.67-0.103,0.968c-0.059,0.297-0.089,0.471-0.089,0.521h2.518v-5.086
		c0.017,0.188,0.042,0.521,0.076,1.005s0.07,0.995,0.114,1.538c0.042,0.543,0.082,1.055,0.113,1.539
		c0.034,0.482,0.061,0.818,0.076,1.004c0,0.051,0.013,0.135,0.039,0.253c0.024,0.12,0.052,0.248,0.075,0.383
		c0.025,0.136,0.053,0.261,0.077,0.381s0.048,0.204,0.062,0.255c0.018,0.033,0.062,0.117,0.139,0.254
		c0.078,0.137,0.116,0.222,0.116,0.255c0,0.102-0.024,0.229-0.077,0.381c-0.052,0.153-0.102,0.317-0.151,0.496
		c-0.052,0.18-0.102,0.359-0.152,0.547c-0.051,0.186-0.075,0.355-0.075,0.51c0.509,0,0.937-0.019,1.282-0.052
		c0.35-0.034,0.674-0.072,0.979-0.114c0.307-0.043,0.634-0.084,0.979-0.128c0.349-0.041,0.776-0.08,1.284-0.114
		c0-0.018,0.004-0.038,0.014-0.063c0.008-0.025,0.013-0.045,0.013-0.062c0-0.151-0.028-0.246-0.091-0.279
		c-0.059-0.034-0.139-0.052-0.241-0.052c-0.084,0-0.169,0.005-0.254,0.015c-0.083,0.009-0.151-0.015-0.203-0.065
		c-0.05-0.05-0.109-0.172-0.179-0.367c-0.067-0.194-0.093-0.326-0.075-0.395c0.018-0.033,0.088-0.08,0.216-0.142
		c0.126-0.059,0.226-0.096,0.294-0.112h0.125c0.086,0,0.184-0.005,0.294-0.014c0.109-0.009,0.216-0.013,0.316-0.013h0.28
		c0.085,0,0.253,0.004,0.508,0.013c0.254,0.009,0.424,0.014,0.509,0.014c0.152,0.086,0.268,0.221,0.344,0.405
		c0.075,0.188,0.132,0.35,0.167,0.483h-1.02c0.05,0.202,0.128,0.402,0.229,0.598c0.103,0.196,0.271,0.293,0.509,0.293h0.281
		l3.049-0.255l0.256-0.51l11.186-1.016l0.508-0.509l0.51,0.763c-0.019,0.034-0.098,0.135-0.242,0.305
		c-0.146,0.171-0.319,0.382-0.521,0.637c-0.203,0.254-0.373,0.448-0.508,0.585c-0.306,0.321-0.7,0.729-1.184,1.221
		c-0.481,0.491-0.957,0.965-1.423,1.423s-1.038,1.018-1.716,1.679h-60.25l-8.137-0.254c-0.051,0-0.135-0.148-0.254-0.446
		c-0.119-0.296-0.238-0.639-0.355-1.028c-0.118-0.389-0.22-0.771-0.307-1.145C604.917,603.754,604.874,603.483,604.874,603.312z
		 M654.473,598.357c-0.084,0.065-0.203,0.174-0.355,0.316c-0.15,0.145-0.228,0.292-0.228,0.444h0.583V598.357z M654.22,598.101
		c0.034-0.084-0.01-0.126-0.128-0.126c-0.102,0-0.144,0.042-0.126,0.126c0.017,0.087,0.06,0.128,0.126,0.128
		C654.143,598.229,654.186,598.188,654.22,598.101z M652.439,597.595c0.136,0,0.203,0.084,0.203,0.253s-0.067,0.253-0.203,0.253
		c-0.138,0-0.202-0.084-0.202-0.253S652.303,597.595,652.439,597.595z M650.915,596.576v0.255l0.253-0.255H650.915z
		 M650.661,599.831c-0.086,0-0.191,0.009-0.318,0.025c-0.126,0.017-0.25,0.042-0.369,0.074c-0.117,0.034-0.219,0.091-0.305,0.166
		c-0.086,0.076-0.129,0.176-0.129,0.293h1.121V599.831L650.661,599.831z M650.457,597.518c-0.237,0-0.44,0.042-0.61,0.129
		c-0.169,0.085-0.254,0.261-0.254,0.531c0.237,0,0.441-0.042,0.611-0.127C650.372,597.966,650.457,597.789,650.457,597.518z
		 M650.406,596.476c-0.153,0-0.271,0.071-0.356,0.217c-0.085,0.144-0.135,0.275-0.151,0.395h0.509L650.406,596.476L650.406,596.476z
		 M650.406,598.865l-0.509,0.507h0.509V598.865z M650.151,599.881c0.137,0,0.202,0.085,0.202,0.255c0,0.171-0.065,0.255-0.202,0.255
		c-0.136,0-0.204-0.084-0.204-0.255C649.947,599.966,650.017,599.881,650.151,599.881z M650.151,597.848
		c-0.033,0.084-0.075,0.127-0.127,0.127c-0.066,0-0.109-0.043-0.128-0.127c-0.018-0.084,0.025-0.127,0.128-0.127
		C650.144,597.721,650.185,597.764,650.151,597.848z M649.643,598.609v0.51l0.51-0.51H649.643z M645.83,599.372
		c-0.034,0.087-0.076,0.128-0.126,0.128c-0.068,0-0.11-0.041-0.127-0.128c-0.02-0.084,0.022-0.126,0.127-0.126
		C645.821,599.246,645.865,599.288,645.83,599.372z M645.577,594.289v0.254l0.253-0.254H645.577z M645.32,592.51
		c-0.135,0-0.204,0.084-0.204,0.253c0,0.17,0.069,0.256,0.204,0.256c0.138,0,0.204-0.086,0.204-0.256
		C645.524,592.594,645.458,592.51,645.32,592.51z M645.32,599.881c-0.135,0-0.204,0.085-0.204,0.255
		c0,0.171,0.069,0.255,0.204,0.255c0.138,0,0.204-0.084,0.204-0.255C645.524,599.966,645.458,599.881,645.32,599.881z
		 M644.304,598.865v0.507l1.018-0.507H644.304z M645.067,597.595c-0.136,0-0.204,0.084-0.204,0.253s0.068,0.253,0.204,0.253
		c0.135,0,0.202-0.084,0.202-0.253S645.202,597.595,645.067,597.595z M644.812,594.264c-0.104,0-0.2,0.013-0.293,0.037
		c-0.093,0.025-0.164,0.107-0.217,0.242c0.02,0,0.057,0.004,0.115,0.013s0.105,0.014,0.14,0.014c0.104,0,0.199-0.014,0.294-0.037
		c0.093-0.027,0.163-0.105,0.216-0.242c-0.018,0-0.056-0.004-0.113-0.014C644.896,594.268,644.847,594.264,644.812,594.264z
		 M644.304,595.051v0.33c0.119,0,0.265-0.017,0.435-0.051c0.17-0.033,0.277-0.126,0.33-0.279H644.304z M644.304,592.763v0.256h0.511
		v-0.256H644.304z M644.812,595.814l-0.51,0.253c0.02,0,0.039,0.005,0.065,0.015c0.023,0.008,0.046,0.011,0.062,0.011
		s0.06-0.007,0.126-0.024c0.033-0.018,0.08-0.055,0.14-0.114C644.758,595.895,644.797,595.848,644.812,595.814z M644.812,596.831
		l-0.51,0.255c0.02,0,0.039,0.002,0.065,0.012c0.023,0.011,0.046,0.015,0.062,0.015s0.06-0.009,0.126-0.025
		c0.033-0.018,0.08-0.057,0.14-0.115C644.758,596.911,644.797,596.866,644.812,596.831z M644.304,600.136v0.508l0.511-0.253
		L644.304,600.136z M644.304,597.848v0.253h0.255L644.304,597.848z M643.542,595.051c0.136,0,0.203,0.086,0.203,0.254
		c0,0.17-0.067,0.256-0.203,0.256c-0.135,0-0.203-0.086-0.203-0.256C643.339,595.137,643.407,595.051,643.542,595.051z
		 M643.287,594.796c0.086,0.035,0.128,0.077,0.128,0.13c0,0.051-0.042,0.092-0.128,0.125c-0.084,0.035-0.126-0.007-0.126-0.125
		C643.161,594.807,643.203,594.763,643.287,594.796z M604.646,601.914c0.085,0.087,0.127,0.213,0.127,0.383
		c0,0.169-0.042,0.296-0.127,0.382c-0.033,0.033-0.062,0.009-0.091-0.077c-0.024-0.084-0.037-0.186-0.037-0.305
		s0.013-0.221,0.037-0.307C604.583,601.906,604.612,601.881,604.646,601.914z"/>
</g>
<g>
	<path fill="#97CAD5" d="M418.136,597.433c0-0.032,0.004-0.096,0.016-0.188c0.007-0.093,0.012-0.156,0.012-0.189l0.509,0.508h12.71
		c0,0.051,0.035,0.14,0.103,0.267c0.067,0.129,0.117,0.207,0.152,0.241c0.034,0.019,0.076,0.006,0.127-0.036
		c0.052-0.042,0.094-0.064,0.127-0.064v-2.439l0.636-0.51v-5.848l0.382,3.56c0.271-0.051,0.445,0.024,0.521,0.229
		c0.076,0.204,0.137,0.44,0.178,0.712c0.043,0.271,0.11,0.521,0.204,0.75c0.094,0.229,0.302,0.343,0.623,0.343h2.797
		c-0.018-0.22,0.023-0.361,0.126-0.431c0.103-0.068,0.229-0.104,0.383-0.104c0.119,0,0.198,0.03,0.241,0.09
		c0.041,0.059,0.075,0.124,0.101,0.19c0.025,0.067,0.057,0.131,0.092,0.191c0.032,0.059,0.102,0.087,0.201,0.087
		c0.017,0,0.037-0.003,0.063-0.011c0.024-0.011,0.047-0.016,0.064-0.016c0.102-0.253,0.188-0.457,0.253-0.609
		c0.068-0.152,0.146-0.275,0.229-0.369c0.085-0.093,0.187-0.177,0.306-0.252c0.117-0.076,0.279-0.176,0.481-0.293
		c0.051-0.034,0.18-0.118,0.382-0.255v-4.575l0.382,4.702h2.033c0.018,0,0.056,0.079,0.113,0.24
		c0.062,0.162,0.105,0.293,0.142,0.396c0.034,0.084,0.081,0.252,0.14,0.507c0.06,0.255,0.098,0.424,0.114,0.508h2.975
		c0-0.118,0.016-0.211,0.038-0.278c0.025-0.067,0.043-0.124,0.052-0.166c0.01-0.043-0.005-0.084-0.038-0.127
		c-0.033-0.042-0.11-0.105-0.229-0.19c-0.051-0.033-0.136-0.084-0.254-0.151c-0.119-0.067-0.246-0.144-0.381-0.229
		c-0.139-0.084-0.265-0.162-0.383-0.229c-0.117-0.068-0.203-0.118-0.254-0.152v-0.279c0.321,0,0.632,0.035,0.93,0.104
		c0.295,0.067,0.588,0.147,0.875,0.24c0.289,0.095,0.585,0.173,0.89,0.241c0.306,0.067,0.636,0.102,0.991,0.102v1.118h2.67
		c0.136-0.235,0.283-0.466,0.445-0.687c0.161-0.22,0.352-0.413,0.572-0.585c-0.237-0.17-0.437-0.336-0.599-0.495
		c-0.161-0.16-0.242-0.386-0.242-0.673c0.053,0,0.142,0.004,0.269,0.013c0.126,0.008,0.264,0.021,0.406,0.039
		c0.145,0.017,0.279,0.033,0.405,0.051c0.127,0.017,0.218,0.033,0.269,0.051c0.119,0.033,0.275,0.111,0.47,0.241
		c0.196,0.127,0.293,0.216,0.293,0.268v1.524c0.051,0,0.136,0.019,0.255,0.051c0.119,0.033,0.246,0.066,0.382,0.103
		c0.136,0.033,0.264,0.063,0.38,0.09c0.119,0.025,0.203,0.027,0.256,0.011c0.119-0.051,0.236-0.16,0.354-0.329
		c0.118-0.17,0.246-0.343,0.381-0.521c0.138-0.179,0.28-0.34,0.435-0.482c0.151-0.145,0.312-0.217,0.481-0.217
		c0.102,0,0.19,0.08,0.269,0.242c0.074,0.16,0.144,0.334,0.203,0.521c0.06,0.188,0.113,0.45,0.164,0.787h0.254v-2.796l-0.509-0.253
		l0.509-0.256v-3.126c-0.187,0-0.316,0.017-0.394,0.051c-0.077,0.035-0.141,0.052-0.19,0.052c-0.051,0-0.122-0.025-0.218-0.076
		c-0.091-0.052-0.248-0.162-0.47-0.331h1.221c0.051-0.186,0.068-0.313,0.051-0.381c-0.017-0.034-0.062-0.12-0.14-0.255
		c-0.077-0.136-0.114-0.22-0.114-0.254s0.033-0.086,0.104-0.152c0.066-0.067,0.117-0.104,0.15-0.104
		c-0.221,0.067-0.443,0.051-0.674-0.051c-0.229-0.102-0.427-0.211-0.598-0.331h1.908v-2.414l0.381,2.288
		c0.254,0.034,0.423,0.052,0.507,0.052c0.204,0,0.426-0.008,0.661-0.025c0.238-0.018,0.441-0.11,0.61-0.28
		c0.019,0.018,0.029,0.057,0.038,0.116c0.01,0.059,0.014,0.104,0.014,0.139c0,0.017-0.08,0.095-0.241,0.229
		c-0.162,0.135-0.34,0.277-0.534,0.432c-0.195,0.153-0.373,0.292-0.535,0.419c-0.16,0.128-0.248,0.191-0.266,0.191
		c-0.017,0.017-0.064,0.017-0.141,0c-0.074-0.018-0.156-0.038-0.24-0.063c-0.086-0.025-0.162-0.051-0.229-0.076
		c-0.066-0.024-0.118-0.039-0.152-0.039v0.435h1.525l0.255-0.511c0.051,0.136,0.113,0.275,0.19,0.421
		c0.076,0.143,0.182,0.258,0.316,0.342l-1.016,1.018c0.031,0.035,0.084,0.115,0.151,0.243c0.066,0.127,0.102,0.214,0.102,0.266
		c0,0.018-0.033,0.057-0.102,0.114s-0.12,0.106-0.151,0.142c-0.053,0.032-0.175,0.116-0.37,0.253
		c-0.193,0.138-0.326,0.222-0.394,0.257c0.033,0,0.098,0.002,0.188,0.011c0.095,0.008,0.157,0.014,0.191,0.014
		c0.188,0,0.343-0.014,0.471-0.039c0.127-0.025,0.267-0.104,0.42-0.241c-0.018,0.257-0.061,0.438-0.127,0.547
		c-0.068,0.11-0.162,0.199-0.279,0.267c-0.119,0.068-0.251,0.129-0.396,0.18c-0.145,0.052-0.3,0.144-0.47,0.278
		c0.033,0,0.119,0.005,0.254,0.016c0.135,0.008,0.222,0.011,0.253,0.011c0.188,0,0.366-0.009,0.534-0.025
		c0.17-0.016,0.331-0.101,0.482-0.253c0,0.018,0.007,0.055,0.015,0.113c0.009,0.061,0.013,0.104,0.013,0.14
		c0,0.153-0.062,0.28-0.191,0.382c-0.127,0.103-0.273,0.19-0.443,0.269c-0.17,0.076-0.339,0.144-0.509,0.203
		c-0.169,0.059-0.307,0.114-0.406,0.166h0.254h0.253c0.086-0.019,0.257-0.058,0.51-0.116c0.255-0.06,0.423-0.105,0.508-0.142
		c0.035,0.035,0.086,0.116,0.153,0.242c0.066,0.126,0.102,0.217,0.102,0.268c0,0.034-0.034,0.075-0.102,0.127
		c-0.067,0.053-0.118,0.095-0.153,0.129h-0.253c-0.051,0.035-0.148,0.085-0.293,0.151c-0.144,0.067-0.302,0.145-0.472,0.229
		c-0.167,0.084-0.324,0.16-0.468,0.229c-0.146,0.068-0.243,0.118-0.294,0.153c0.051,0,0.157,0.002,0.318,0.011
		c0.16,0.01,0.267,0.015,0.316,0.015c0.338,0,0.623-0.024,0.852-0.077c0.229-0.051,0.496-0.204,0.802-0.457
		c0.05,0.236,0.004,0.445-0.142,0.621c-0.143,0.18-0.315,0.332-0.521,0.459s-0.415,0.228-0.636,0.305
		c-0.22,0.078-0.382,0.123-0.482,0.141h1.524l0.255-0.381h1.651v-1.397l0.384,1.524c0.03-0.033,0.079-0.117,0.139-0.255
		c0.06-0.136,0.097-0.22,0.114-0.255c0.136-0.863,0.221-1.795,0.255-2.795c0.033-1,0.033-1.933,0-2.797
		c0.149-0.136,0.293-0.215,0.419-0.242c0.127-0.023,0.284-0.038,0.472-0.038c0.187,0,0.384,0.024,0.598,0.076
		c0.213,0.052,0.317,0.194,0.317,0.433c0,0.034-0.005,0.084-0.015,0.152c-0.008,0.066-0.014,0.109-0.014,0.126
		c0,0.019-0.037,0.062-0.112,0.13c-0.076,0.067-0.123,0.109-0.141,0.125c-0.035,0.068-0.01,0.195,0.076,0.381h0.938l-2.032,0.383
		v0.278c0.034,0,0.119-0.003,0.254-0.011c0.137-0.01,0.221-0.015,0.255-0.015c0.067,0,0.188,0.015,0.355,0.04
		c0.17,0.023,0.352,0.05,0.547,0.075c0.193,0.024,0.378,0.05,0.546,0.075c0.17,0.024,0.278,0.048,0.331,0.065
		c-0.256,0.065-0.496,0.205-0.726,0.418c-0.229,0.211-0.411,0.411-0.546,0.597c0,0.086-0.006,0.256-0.013,0.509
		c-0.01,0.253-0.013,0.425-0.013,0.511c0,0.389,0.009,0.735,0.024,1.041c0.017,0.307,0.102,0.635,0.253,0.991
		c0.035,0.033,0.076,0.052,0.128,0.052c0.322-0.427,0.576-0.777,0.764-1.056c0.186-0.28,0.359-0.543,0.521-0.788
		c0.162-0.247,0.241-0.411,0.241-0.498v1.02h0.762v-2.543c0-0.102,0.077-0.174,0.231-0.217c0.151-0.041,0.277-0.062,0.379-0.062
		h0.178c0.307,0,0.502,0.136,0.587,0.405c0.084,0.271,0.122,0.582,0.113,0.928c-0.008,0.35-0.042,0.67-0.104,0.968
		c-0.058,0.296-0.088,0.471-0.088,0.521h2.518v-5.086c0.017,0.188,0.042,0.521,0.075,1.005c0.035,0.482,0.071,0.995,0.115,1.538
		c0.042,0.543,0.082,1.055,0.113,1.539c0.034,0.482,0.06,0.817,0.076,1.004c0,0.051,0.013,0.135,0.039,0.253
		c0.024,0.12,0.052,0.248,0.075,0.383c0.025,0.135,0.053,0.261,0.076,0.381c0.025,0.12,0.049,0.204,0.063,0.255
		c0.018,0.033,0.062,0.117,0.139,0.253c0.078,0.138,0.116,0.223,0.116,0.256c0,0.102-0.025,0.229-0.077,0.381
		s-0.102,0.317-0.152,0.496c-0.051,0.18-0.101,0.359-0.151,0.547c-0.051,0.186-0.075,0.355-0.075,0.51
		c0.509,0,0.936-0.019,1.282-0.052c0.35-0.034,0.674-0.072,0.979-0.114c0.307-0.043,0.634-0.084,0.979-0.128
		c0.349-0.041,0.775-0.08,1.284-0.114c0-0.018,0.004-0.038,0.014-0.063c0.008-0.025,0.013-0.045,0.013-0.062
		c0-0.152-0.028-0.246-0.091-0.279c-0.059-0.034-0.139-0.052-0.241-0.052c-0.084,0-0.169,0.005-0.254,0.014
		c-0.083,0.01-0.151-0.014-0.203-0.064c-0.05-0.05-0.109-0.172-0.179-0.367c-0.067-0.195-0.093-0.326-0.075-0.395
		c0.018-0.033,0.088-0.08,0.217-0.142c0.125-0.059,0.225-0.096,0.293-0.113h0.125c0.086,0,0.184-0.004,0.294-0.013
		c0.109-0.009,0.216-0.013,0.316-0.013h0.28c0.085,0,0.253,0.004,0.508,0.013c0.254,0.009,0.424,0.013,0.509,0.013
		c0.152,0.087,0.268,0.222,0.343,0.406c0.076,0.188,0.133,0.35,0.168,0.483h-1.02c0.05,0.202,0.128,0.401,0.229,0.598
		c0.104,0.196,0.271,0.293,0.51,0.293h0.281l3.049-0.255l0.256-0.51l11.186-1.016l0.508-0.509l0.51,0.763
		c-0.019,0.033-0.098,0.135-0.242,0.305c-0.146,0.171-0.319,0.382-0.521,0.637c-0.203,0.254-0.373,0.448-0.508,0.585
		c-0.306,0.321-0.7,0.729-1.184,1.221c-0.481,0.491-0.957,0.965-1.423,1.423s-1.038,1.018-1.716,1.679h-60.25l-8.137-0.254
		c-0.051,0-0.135-0.148-0.254-0.446c-0.119-0.296-0.238-0.639-0.355-1.029c-0.118-0.388-0.22-0.771-0.307-1.144
		C418.179,597.874,418.136,597.604,418.136,597.433z M467.734,592.479c-0.084,0.065-0.204,0.174-0.356,0.316
		c-0.149,0.145-0.227,0.292-0.227,0.444h0.583V592.479z M467.48,592.221c0.034-0.084-0.01-0.126-0.127-0.126
		c-0.103,0-0.145,0.042-0.127,0.126c0.017,0.087,0.06,0.128,0.127,0.128C467.404,592.349,467.447,592.308,467.48,592.221z
		 M465.701,591.715c0.136,0,0.204,0.084,0.204,0.253s-0.068,0.253-0.204,0.253c-0.137,0-0.202-0.084-0.202-0.253
		S465.564,591.715,465.701,591.715z M464.177,590.696v0.255l0.253-0.255H464.177z M463.923,593.951c-0.086,0-0.19,0.009-0.317,0.024
		c-0.127,0.018-0.25,0.042-0.369,0.075c-0.118,0.034-0.22,0.09-0.306,0.166s-0.129,0.175-0.129,0.293h1.121V593.951L463.923,593.951
		z M463.719,591.638c-0.236,0-0.439,0.042-0.609,0.128c-0.169,0.085-0.254,0.262-0.254,0.532c0.236,0,0.44-0.042,0.61-0.127
		C463.634,592.086,463.719,591.909,463.719,591.638z M463.668,590.596c-0.153,0-0.271,0.071-0.355,0.217
		c-0.086,0.144-0.136,0.275-0.152,0.395h0.509L463.668,590.596L463.668,590.596z M463.668,592.985l-0.509,0.507h0.509V592.985z
		 M463.413,594.001c0.137,0,0.203,0.085,0.203,0.255c0,0.171-0.066,0.255-0.203,0.255c-0.135,0-0.204-0.084-0.204-0.255
		C463.209,594.086,463.278,594.001,463.413,594.001z M463.413,591.968c-0.033,0.084-0.075,0.127-0.127,0.127
		c-0.066,0-0.109-0.043-0.127-0.127c-0.019-0.084,0.024-0.127,0.127-0.127C463.405,591.841,463.446,591.884,463.413,591.968z
		 M462.904,592.729v0.511l0.509-0.511H462.904z M459.092,593.492c-0.034,0.087-0.076,0.128-0.126,0.128
		c-0.067,0-0.109-0.041-0.127-0.128c-0.019-0.084,0.023-0.126,0.127-0.126C459.083,593.366,459.127,593.408,459.092,593.492z
		 M458.839,588.409v0.254l0.253-0.254H458.839z M458.582,586.63c-0.134,0-0.204,0.084-0.204,0.253c0,0.17,0.07,0.256,0.204,0.256
		c0.138,0,0.204-0.086,0.204-0.256C458.786,586.714,458.72,586.63,458.582,586.63z M458.582,594.001
		c-0.134,0-0.204,0.085-0.204,0.255c0,0.171,0.07,0.255,0.204,0.255c0.138,0,0.204-0.084,0.204-0.255
		C458.786,594.086,458.72,594.001,458.582,594.001z M457.565,592.985v0.507l1.017-0.507H457.565z M458.329,591.715
		c-0.135,0-0.204,0.084-0.204,0.253s0.069,0.253,0.204,0.253s0.203-0.084,0.203-0.253S458.464,591.715,458.329,591.715z
		 M458.075,588.384c-0.104,0-0.201,0.013-0.293,0.037c-0.093,0.025-0.164,0.107-0.217,0.242c0.019,0,0.056,0.004,0.114,0.013
		c0.06,0.009,0.105,0.014,0.141,0.014c0.103,0,0.199-0.014,0.294-0.037c0.092-0.027,0.163-0.105,0.215-0.242
		c-0.017,0-0.055-0.004-0.113-0.014C458.157,588.388,458.108,588.384,458.075,588.384z M457.565,589.171v0.33
		c0.118,0,0.264-0.017,0.434-0.051c0.17-0.033,0.278-0.126,0.33-0.279H457.565z M457.565,586.883v0.256h0.51v-0.256H457.565z
		 M458.075,589.935l-0.51,0.253c0.019,0,0.038,0.006,0.064,0.016c0.024,0.008,0.046,0.011,0.063,0.011
		c0.016,0,0.059-0.007,0.126-0.024c0.032-0.018,0.08-0.055,0.139-0.114C458.02,590.015,458.059,589.968,458.075,589.935z
		 M458.075,590.951l-0.51,0.255c0.019,0,0.038,0.002,0.064,0.012c0.024,0.011,0.046,0.015,0.063,0.015
		c0.016,0,0.059-0.01,0.126-0.025c0.032-0.018,0.08-0.057,0.139-0.115C458.02,591.031,458.059,590.986,458.075,590.951z
		 M457.565,594.256v0.508l0.51-0.253L457.565,594.256z M457.565,591.968v0.253h0.255L457.565,591.968z M456.804,589.171
		c0.136,0,0.203,0.086,0.203,0.254c0,0.17-0.066,0.255-0.203,0.255c-0.135,0-0.203-0.085-0.203-0.255
		C456.601,589.257,456.669,589.171,456.804,589.171z M456.549,588.916c0.086,0.035,0.128,0.077,0.128,0.13
		c0,0.051-0.042,0.092-0.128,0.125c-0.084,0.035-0.126-0.007-0.126-0.125C456.423,588.927,456.465,588.883,456.549,588.916z
		 M417.907,596.034c0.085,0.087,0.127,0.213,0.127,0.383c0,0.169-0.042,0.296-0.127,0.382c-0.033,0.033-0.062,0.009-0.09-0.077
		c-0.025-0.084-0.037-0.186-0.037-0.305s0.012-0.221,0.037-0.307C417.845,596.026,417.874,596.001,417.907,596.034z"/>
</g>
<g>
	<path fill="#97CAD5" d="M915.561,593.345c-0.213,0.706-0.471,1.57-0.774,2.589c-0.312,1.018-0.642,2.141-0.998,3.371
		c-0.353,1.229-0.697,2.354-1.027,3.366c-0.332,1.021-0.6,1.88-0.812,2.589c-0.213,0.714-0.347,1.09-0.394,1.139
		c-0.289,0.377-0.653,0.852-1.102,1.415c-0.451,0.569-0.896,1.114-1.349,1.633c-0.446,0.522-0.854,0.976-1.204,1.353
		c-0.353,0.379-0.554,0.566-0.605,0.566H707.232c-0.099,0-0.347-0.709-0.742-2.131c-0.406-1.42-0.83-3.071-1.281-4.964
		c-0.447-1.895-0.852-3.797-1.205-5.715c-0.354-1.913-0.535-3.369-0.535-4.359c0-0.146,0.013-0.354,0.037-0.639
		c0.027-0.282,0.045-0.566,0.072-0.854c0.021-0.283,0.049-0.542,0.072-0.776c0.021-0.24,0.037-0.382,0.037-0.431l0.709-0.709
		c0.09,0.047,0.219,0.153,0.385,0.318c0.166,0.166,0.274,0.298,0.319,0.391c0.048,0.142,0.107,0.379,0.181,0.711
		c0.067,0.33,0.141,0.685,0.213,1.065c0.07,0.376,0.139,0.732,0.213,1.062c0.07,0.33,0.105,0.566,0.105,0.711l7.098,1.415
		c-0.146-0.802,0-1.251,0.422-1.347c0.428-0.094,0.826-0.143,1.207-0.143c0.756,0,1.441,0.131,2.059,0.391
		c0.613,0.265,1.275,0.39,1.986,0.39h0.709c-0.617,0.049-1.014-0.071-1.207-0.354c-0.188-0.282-0.281-0.641-0.281-1.062
		c0-0.188,0.093-0.376,0.281-0.569c0.193-0.188,0.758-0.341,1.703-0.461c0.945-0.117,2.426-0.21,4.434-0.279
		c2.009-0.074,4.859-0.106,8.554-0.106v-14.545c0.235-0.237,0.352-0.645,0.352-1.207c0-0.616,0.113-1.036,0.354-1.275
		c0.049-0.096,0.151-0.224,0.317-0.393c0.164-0.167,0.295-0.272,0.394-0.319l2.125,4.254l15.608,12.062
		c0.095-1.75,0.425-3.096,0.994-4.039c0.57-0.951,1.195-1.776,1.881-2.485c0.687-0.711,1.316-1.452,1.884-2.233
		c0.563-0.785,0.87-1.881,0.916-3.305c0-0.565,0.026-1.559,0.069-2.976c0.049-1.42,0.115-2.919,0.183-4.505
		c0.067-1.583,0.153-3.077,0.248-4.47c0.094-1.394,0.163-2.38,0.213-2.943h0.709c0,0.423,0.012,1.088,0.039,1.981
		c0.021,0.904,0.057,1.907,0.104,3.02c0.045,1.112,0.092,2.284,0.141,3.511c0.05,1.231,0.095,2.409,0.144,3.548
		c0.045,1.131,0.092,2.141,0.141,3.016c0.045,0.877,0.095,1.522,0.144,1.956c0,0.137,0.049,0.412,0.141,0.81
		c0.096,0.406,0.203,0.843,0.32,1.312c0.117,0.474,0.235,0.915,0.354,1.314c0.121,0.401,0.203,0.674,0.248,0.812v-2.128l1.775,1.422
		h6.385l1.414-17.741c0.24,0.668,0.432,1.4,0.572,2.202c0.143,0.807,0.27,1.635,0.387,2.484c0.121,0.852,0.219,1.669,0.289,2.45
		c0.066,0.776,0.125,1.476,0.176,2.09c0.424,0.383,1.203,1.021,2.338,1.916c1.14,0.899,2.339,1.834,3.619,2.803
		c1.275,0.97,2.496,1.88,3.656,2.729c1.156,0.854,1.971,1.441,2.445,1.771c0.52,0.384,1.137,0.668,1.846,0.853
		c0.711,0.191,1.443,0.336,2.201,0.426c0.752,0.097,1.463,0.143,2.125,0.143c0.66,0,1.209,0,1.631,0
		c-0.088,0.239-0.047,0.63,0.146,1.172c0.185,0.548,0.377,0.866,0.562,0.959c0.049,0.09,0.236,0.09,0.572,0
		c0.326-0.093,0.696-0.188,1.096-0.286c0.402-0.096,0.773-0.199,1.1-0.317c0.334-0.117,0.543-0.176,0.642-0.176
		c0-0.095-0.117-0.201-0.353-0.317c-0.239-0.117-0.311-0.228-0.217-0.322c0.141-0.142,0.484-0.308,1.031-0.493
		c0.537-0.193,0.908-0.264,1.1-0.218c0.519,0,1.416,0.017,2.691,0.035c1.281,0.026,2.627,0.036,4.045,0.036
		c1.422,0,2.77-0.01,4.045-0.036c1.277-0.02,2.174-0.035,2.697-0.035c0.143,0,0.377-0.021,0.709-0.065
		c0.33-0.052,0.682-0.108,1.062-0.18c0.381-0.071,0.732-0.152,1.068-0.251c0.326-0.093,0.563-0.166,0.703-0.21
		c0.049-0.286,0.119-0.793,0.213-1.526c0.098-0.731,0.18-1.515,0.254-2.338c0.07-0.831,0.127-1.622,0.176-2.385
		c0.045-0.752,0.072-1.271,0.072-1.556v-0.424v-0.289c-0.096-0.093-0.322-0.233-0.676-0.425c-0.355-0.189-0.605-0.28-0.742-0.28
		l1.418-1.42l1.062-7.806v7.806l1.771,1.42c0.098,0.091,0.734,0.543,1.918,1.347c1.18,0.804,2.566,1.726,4.148,2.767
		c1.586,1.041,3.205,2.104,4.86,3.193c1.656,1.088,2.979,1.96,3.974,2.622c0.094,0.049,0.334,0.151,0.709,0.321
		c0.383,0.164,0.61,0.295,0.709,0.39c0.049,0.142,0.069,0.259,0.069,0.352c0,0.053-0.021,0.169-0.069,0.36
		c-0.043,0.092-0.152,0.223-0.316,0.387c-0.168,0.163-0.299,0.275-0.393,0.321h8.514c0.045-0.146,0.152-0.393,0.322-0.746
		c0.164-0.352,0.295-0.578,0.387-0.674c0.145-0.046,0.26-0.07,0.354-0.07c0.853,0,1.527,0.212,2.023,0.642
		c0.496,0.422,0.898,0.921,1.207,1.486c0.305,0.567,0.602,1.126,0.885,1.671c0.285,0.542,0.687,0.954,1.205,1.24V569.51
		c0-0.189,0.096-0.553,0.283-1.099c0.191-0.548,0.328-0.888,0.426-1.035c0.146-0.183,0.502-0.352,1.068-0.493v5.464
		c0.092-0.049,0.248-0.142,0.457-0.282c0.217-0.143,0.453-0.283,0.715-0.426c0.258-0.145,0.506-0.283,0.74-0.426
		c0.24-0.142,0.428-0.237,0.569-0.283h0.357h0.354c-0.24,0.234-0.595,0.709-1.068,1.417c-0.471,0.709-0.822,1.182-1.062,1.417
		c-0.096,0.191-0.235,0.45-0.426,0.779c-0.188,0.333-0.283,0.545-0.283,0.641v10.641c0,0.901,0.345,1.638,1.031,2.205
		c0.686,0.565,1.498,1.005,2.441,1.311c0.948,0.309,1.918,0.519,2.914,0.641c0.987,0.12,1.815,0.173,2.481,0.173
		c0.146,0,0.437-0.01,0.885-0.036c0.453-0.017,0.748-0.032,0.888-0.032c-0.047-0.659,0.069-1.074,0.354-1.243
		c0.285-0.163,0.613-0.245,0.996-0.245c0.281,0,0.519,0.033,0.705,0.104c0.193,0.07,0.365,0.142,0.535,0.213
		c0.166,0.07,0.34,0.134,0.531,0.177c0.186,0.047,0.448,0.071,0.78,0.071v-9.007h7.445l1.42,9.931h1.062v-3.053
		c0.52,0.05,0.879,0.12,1.067,0.213c0.097,0.049,0.222,0.152,0.392,0.321c0.166,0.163,0.27,0.295,0.317,0.39l13.48,6.386
		c0.328,0.665,0.629,1.079,0.887,1.242c0.254,0.167,0.646,0.248,1.168,0.248c0.947,0,1.822-0.146,2.627-0.428
		c0.801-0.283,1.678-0.425,2.623-0.425c0.898,0,1.705,0.072,2.412,0.212c0.709,0.143,1.254,0.808,1.637,1.986h9.22
		c0.047,0,0.25-0.177,0.602-0.53c0.354-0.354,0.627-0.648,0.818-0.89l2.84-3.546c0.047-0.092,0.151-0.221,0.315-0.393
		c0.162-0.163,0.3-0.271,0.388-0.318c0,0.049,0.016,0.155,0.041,0.318c0.022,0.172,0.034,0.301,0.034,0.393
		C915.883,592.255,915.773,592.634,915.561,593.345z M741.498,594.443c0.191-0.354,0.354-0.631,0.496-0.815h0.283h0.426
		c0.096,0,0.354,0.033,0.781,0.104c0.424,0.07,0.869,0.152,1.35,0.248c0.475,0.099,0.924,0.18,1.346,0.25
		c0.427,0.071,0.688,0.106,0.779,0.106c0.1,0,0.334-0.12,0.715-0.356c0.375-0.236,0.609-0.353,0.703-0.353
		c0.146,0,0.393-0.011,0.746-0.038c0.354-0.021,0.736-0.06,1.135-0.105c0.4-0.047,0.781-0.081,1.139-0.104
		c0.354-0.024,0.601-0.035,0.746-0.035c0-0.146-0.075-0.283-0.217-0.425l-2.127-2.132c-0.854-0.708-1.979-1.604-3.371-2.695
		c-1.393-1.084-2.766-2.163-4.11-3.227c-1.353-1.065-2.55-1.986-3.582-2.767c-1.043-0.781-1.613-1.195-1.705-1.242l-1.418-0.708
		v12.771c0.752,0.093,1.467,0.414,2.125,0.956c0.659,0.543,1.293,1.126,1.881,1.736c0.59,0.616,1.172,1.169,1.737,1.673
		c0.568,0.493,1.134,0.741,1.701,0.741c0.099,0,0.273-0.015,0.535-0.035c0.256-0.024,0.436-0.061,0.533-0.106l-2.84-2.837
		C741.236,595.002,741.307,594.8,741.498,594.443z M746.959,596.111c0.379,0,0.617-0.117,0.715-0.357
		c0.047-0.093-0.012-0.163-0.18-0.213c-0.166-0.043-0.344-0.07-0.535-0.07c-0.189,0-0.365,0.027-0.531,0.07
		c-0.166,0.05-0.227,0.12-0.178,0.213C746.346,595.994,746.584,596.111,746.959,596.111z M781.727,585.114
		c-0.661-0.523-1.52-1.184-2.555-1.986c-1.041-0.804-2.061-1.584-3.055-2.341c-0.992-0.755-2.199-1.682-3.617-2.771h-0.707v7.804
		h1.773v-2.834h1.414v5.677h6.745c0.14-0.382,0.318-0.771,0.531-1.172c0.213-0.398,0.504-0.72,0.883-0.957L781.727,585.114z
		 M817.195,587.24h14.188l-12.771-8.512c-0.092-0.096-0.334-0.227-0.709-0.393c-0.379-0.166-0.617-0.268-0.709-0.319V587.24
		L817.195,587.24z M888.852,594.337c-1.42-0.662-2.608-1.229-3.58-1.703c-0.975-0.472-1.979-0.946-3.02-1.418
		c-1.041-0.471-1.912-0.853-2.627-1.136c-0.139-0.1-0.479-0.228-1.023-0.394c-0.549-0.163-0.909-0.267-1.102-0.315
		c-0.098,0-0.301-0.011-0.605-0.035c-0.304-0.023-0.479-0.041-0.526-0.041c0,0.243,0.049,0.729,0.141,1.458
		c0.094,0.733,0.188,1.221,0.283,1.455c0.186,0.57,0.494,0.946,0.922,1.137c0.428,0.187,0.898,0.388,1.42,0.605
		c0.521,0.209,1.07,0.528,1.668,0.953c0.588,0.426,1.146,1.184,1.668,2.271c0.187,0.379,0.39,0.604,0.603,0.673
		c0.213,0.071,0.508,0.109,0.887,0.109c0.094,0,0.307-0.024,0.639-0.071c0.095-0.049,0.213-0.283,0.355-0.711
		c0.139-0.423,0.256-0.659,0.354-0.711c0.138-0.041,0.379-0.115,0.709-0.213c0.326-0.093,0.688-0.175,1.062-0.251
		c0.383-0.065,0.736-0.125,1.062-0.172c0.334-0.046,0.572-0.073,0.714-0.073v-1.417H888.852z"/>
</g>
<path fill="#97CAD5" d="M717.19,570.972c0,0,0.879-0.062,1.499,0c1.567,0.159,1.311-0.477,1.311-1.271s0-2.829,0-2.829
	s4.257-1.939,4.953-2.099c0.696-0.16,2.657-2.066,2.784-2.543c0.128-0.479,0.773,0.477,1.179,0c0.404-0.479,0.021,2.225,0.995,2.384
	s1.964,0.317,2.8,0.478c0.834,0.158,1.121,1.78,2.652,1.78s2.371-0.192,2.928,0.921s-2.459,2.386-0.812,2.703
	c1.648,0.317,4.016-1.271,4.016-1.271s0.836-2.001,0.001-2.353c-0.835-0.351-3.2-0.986-4.175-1.464
	c-0.976-0.478-0.976-0.479-2.228-2.226c-1.254-1.747-0.557-2.385-1.392-2.86c-0.836-0.479-0.418-1.112-2.229-1.432
	c-1.81-0.318-3.04-0.953-3.607-0.794c-0.567,0.158-0.985,0.793-1.265,1.431c-0.278,0.637-1.947,0-2.923,1.271
	c-0.975,1.272-1.671,1.271-2.645,2.385c-0.976,1.112-1.948,1.112-2.784,2.226c-0.835,1.112-1.531,1.272-1.81,2.704
	c-0.277,1.43-1.609,2.751-0.875,2.885C716.303,571.131,717.19,570.972,717.19,570.972z"/>
<path fill="#97CAD5" d="M720,599.854V579h-3.617c0,0-1.021-1.973,0.229-2.129c1.252-0.154,3.389,0.159,3.389,0.159V564.31
	l8.588-3.142l9.412,3.142v11.059c0,0,2.866,0.107,3.489,0.263c0.622,0.155,0.433,0.934-0.19,1.399
	c-0.621,0.467-3.299,0.934-3.299,0.934v23.469L720,599.854z"/>
<path fill="#DAF0F2" d="M315.252,630.612c0,0,0.788,1.147,1.748,1.9s-0.96-0.072,0,1.058s2.045,1.989,3.151,2.994
	c1.105,1.004,1.146,1.863,1.843,2.294c0.697,0.43,1.924,1.291,1.812,1.721c-0.111,0.43,0.777,1.146,1.193,0
	c0.416-1.147,0.921-2.726,1.959-2.868c1.038-0.142,1.371,0.287,2.854-0.573c1.482-0.859,0.671-0.171,2.581-1.231
	c1.911-1.062,2.562-0.632,3.526-1.35c0.965-0.717,1.538-1.792,2.112-2.043s0-1.117,0-1.117L315.252,630.612z"/>
<g>
	<path fill="#97CAD5" d="M315.252,630.612c0,0-1.069-1.307,0.626-1.36c1.696-0.055,15.982-1.844,15.982-1.844l7.14,2.582v1.275
		l-14.648,1.956c0,0-2.602,0.783-4.055,0C318.844,632.44,315.252,630.612,315.252,630.612z"/>
	<polyline fill="#97CAD5" points="325,630 325,611.7 326,611.704 326,630 	"/>
	<path fill="#97CAD5" d="M327,619.952L327,619.952c0,0,0.119,0.593-0.041,0.682s-2.105,0.515-2.496,0.372
		c-0.39-0.142-0.603-0.885-0.407-0.867c0.196,0.019,0.479-0.377,1.292-0.33C326.162,619.856,327,619.952,327,619.952z"/>
	<path fill="#97CAD5" d="M326,628.129c0,0,3.331-4.456,3.331-8.324c0-3.867-3.331-8.101-3.331-8.101s6.773,4.531,7.18,7.511
		C334.035,625.485,326,628.129,326,628.129z"/>
</g>
<linearGradient id="SVGID_1_" gradientUnits="userSpaceOnUse" x1="546.5762" y1="128.1787" x2="546.5762" y2="172.5162" gradientTransform="matrix(1 0 0 -1 102.5 776)">
	<stop  offset="0.2988" style="stop-color:#FFFFFF"/>
	<stop  offset="1" style="stop-color:#FFFFFF;stop-opacity:0"/>
</linearGradient>
<rect x="346.791" y="617.952" fill="url(#SVGID_1_)" width="604.57" height="31"/>
<path fill="#DAF0F2" d="M948.658,631.44c0,0-0.619,1.147-1.373,1.9c-0.755,0.753,0.754-0.073,0,1.058
	c-0.755,1.13-1.607,1.989-2.477,2.993c-0.871,1.005-0.899,1.864-1.447,2.294c-0.549,0.431-1.513,1.291-1.424,1.722
	c0.086,0.43-0.611,1.146-0.938,0c-0.327-1.147-0.725-2.727-1.539-2.868c-0.815-0.143-1.078,0.287-2.242-0.573
	c-1.165-0.859-0.526-0.171-2.028-1.231c-1.502-1.062-2.013-0.633-2.771-1.35c-0.76-0.717-1.209-1.792-1.66-2.043
	c-0.45-0.251,0-1.118,0-1.118L948.658,631.44z"/>
<g>
	<path fill="#97CAD5" d="M948.658,631.612c0,0,0.84-1.307-0.492-1.36s-12.557-0.844-12.557-0.844L930,631.99v1.275l11.509,0.956
		c0,0,2.044,0.783,3.187,0C945.836,633.44,948.658,631.612,948.658,631.612z"/>
	<polyline fill="#97CAD5" points="941,632 941,613.7 940,613.704 940,632 	"/>
	<path fill="#97CAD5" d="M939.428,621.952L939.428,621.952c0,0-0.094,0.593,0.033,0.682c0.125,0.089,1.654,0.515,1.961,0.372
		c0.307-0.142,0.473-0.885,0.319-0.867c-0.154,0.019-0.375-0.377-1.016-0.33C940.086,621.855,939.428,621.952,939.428,621.952z"/>
	<path fill="#97CAD5" d="M940.214,630.129c0,0-2.617-4.456-2.617-8.324c0-3.867,2.617-8.101,2.617-8.101s-5.321,4.531-5.641,7.511
		C933.9,627.485,940.214,630.129,940.214,630.129z"/>
</g>
</svg>
