<?xml version="1.0" encoding="utf-8"?>
<!-- Generator: Adobe Illustrator 16.0.0, SVG Export Plug-In . SVG Version: 6.00 Build 0)  -->
<!DOCTYPE svg PUBLIC "-//W3C//DTD SVG 1.1//EN" "http://www.w3.org/Graphics/SVG/1.1/DTD/svg11.dtd">
<svg version="1.1" id="Layer_1" xmlns="http://www.w3.org/2000/svg" xmlns:xlink="http://www.w3.org/1999/xlink" x="0px" y="0px"
	 width="989.272px" height="218.045px" viewBox="0 0 989.272 218.045" enable-background="new 0 0 989.272 218.045"
	 xml:space="preserve">
<path fill="#5DC0DE" d="M-86.033,213.627c0,0,15.719,91.183,44.21,99.177c25.046,7.027,130.313-23.441,246.592-31.049l180.769-4.945
	c173.149,7.232,452.339,41.668,547.217,58.205c115.928,20.203,330.1-23.205,330.1-23.205s0.675-279.188,0-284
	c-0.982-7-16.702-29-17.685-43s-6.877-23-8.842-30s-8.842-13-7.859,0s4.722,22-0.096,24c-4.816,2-14.641,6-14.641,0s3.93-10,0-13
	s-12.772,10-12.772,10s-2.947,7-7.859,10s-10.807,14-15.719,11s-3.93-10-6.877-12s1.965-20,0-25s5.924-26-0.967-28
	c-6.893-2-8.857,12-9.84,18s-0.982,12-5.895,19s-3.93,13-7.859,18s0.982,17-10.807,15c-11.79-2-29.474-3-36.351,2
	s-10.843,16-10.843,16s-2.348-20-7.541-22c-5.195-2-0.855,7.42-8.353,11c-12.562,6-24.351,13-31.228,16s-22.596,0-28.49,9
	s-32.421,22-42.245,15s-22.597-10-29.474-5s-15.719,15-18.666,17s-14.736,10-23.578,13s-8.842-2-13.754-5s-3.93-5-4.912-11
	s-4.913-21,0-24c4.912-3,12.771-7,12.771-10s-10.731,2-15.189,2c-4.46,0-14.284,6-18.214,15s-5.895,20-11.789,24
	s-19.649,15-22.597,17s-5.895,3-10.807,9s-24.561,22-32.42,24s-27.508,6-31.438,11c-3.93,5-39.297,23-47.157,29
	c-7.859,6-49.121,43-68.77,36c-19.649-7-40.28-17-47.157-13s-12.772,6-14.737,9s-12.771-2-23.578-3s-21.229-9-22.404-5
	c-1.174,4-1.174,4-1.174,4s-7.859-8-10.807-9s-14.633,0-15.668,1c-1.034,1-14.874,4-17.287,3s-20.904-10-20.904-10l-7.053-13
	c0,0-7.859-22-15.719-28s-17.684-7-17.684-7s-8.842,6-14.736,2s-1.965-11.193-3.93-12.596c-1.965-1.404-4.912-11.404-4.912-11.404
	s-24.562-6-27.509-6s-35.367,12-35.367,12s-23.579-11-26.526-14s-23.578,5-27.508,5s-45.192-8-45.192-8s-42.245-6-53.052-5
	s-64.841,10-72.7,11s-17.684,7-30.456,2c-12.771-5-19.648-12-25.543-19s-0.982-31-7.859-34s-18.666-18-22.596-21
	s-15.719-12-16.701-13s-23.579,1-23.579,1l-2.328,164.715L-86.033,213.627z"/>
</svg>
