<?xml version="1.0" encoding="utf-8"?>
<!-- Generator: Adobe Illustrator 16.0.0, SVG Export Plug-In . SVG Version: 6.00 Build 0)  -->
<!DOCTYPE svg PUBLIC "-//W3C//DTD SVG 1.1//EN" "http://www.w3.org/Graphics/SVG/1.1/DTD/svg11.dtd">
<svg version="1.1" xmlns="http://www.w3.org/2000/svg" xmlns:xlink="http://www.w3.org/1999/xlink" x="0px" y="0px"
	 width="1257.988px" height="41.999px" viewBox="0 0 1257.988 41.999" enable-background="new 0 0 1257.988 41.999"
	 xml:space="preserve">
<g id="Layer_1">
	<rect x="-476.012" y="-165.57" fill="#F66B53" width="256" height="256"/>
	<rect x="-476.012" y="90.43" fill="#8ED5E3" width="256" height="256"/>
	<rect x="-476.012" y="346.43" fill="#185B77" width="256" height="256"/>
	<ellipse opacity="0.1" fill="#FFFFFF" cx="1466.322" cy="-354.439" rx="0.333" ry="0.945"/>
</g>
<g id="Layer_4">
</g>
<g id="Layer_3">
	<path fill="#8ED5E3" d="M1331.988,90.43c0,0-16-49-31-62.55s-43.824-2.402-74-3.45s-48-2-91,3.45s-74,3.55-112-4.45
		s-72-5-100.389,3.374S826.988,40.43,787.664,34.43s-148.676,6-196.043-4.366S436.988,16.43,391.157,21.459
		S204.988,35.43,151.335,25.758s-174.347,0-174.347,0l-30,53.672l30,0.238V793.43l1280,10V99.834L1331.988,90.43z"/>
</g>
<g id="Layer_2">
	<rect x="-53.012" y="-395.57" fill="#303B3D" width="299" height="160"/>
	<path fill="#DDF0F2" d="M1341.988,82.665c0,0-16-49-31-62.55s-43.824-2.402-74-3.45s-48-2-91,3.45s-74,3.55-112-4.45
		s-72-5-100.389,3.374s-96.611,13.626-135.936,7.626s-148.676,6-196.043-4.366S446.988,8.665,401.157,13.694
		s-186.169,13.971-239.822,4.299s-174.347,0-174.347,0l-30,53.672l30,0.238v713.762h1280V82.069L1341.988,82.665z"/>
	<path fill="#8ED5E3" d="M1331.988,90.43c0,0-16-49-31-62.55s-43.824-2.402-74-3.45s-48-2-91,3.45s-74,3.55-112-4.45
		s-72-5-100.389,3.374S826.988,40.43,787.664,34.43s-148.676,6-196.043-4.366S436.988,16.43,391.157,21.459
		S204.988,35.43,151.335,25.758s-174.347,0-174.347,0l-30,53.672l30,0.238V793.43h1280V89.834L1331.988,90.43z"/>
</g>
</svg>
