<?xml version="1.0" encoding="utf-8"?>
<!-- Generator: Adobe Illustrator 16.0.0, SVG Export Plug-In . SVG Version: 6.00 Build 0)  -->
<!DOCTYPE svg PUBLIC "-//W3C//DTD SVG 1.1//EN" "http://www.w3.org/Graphics/SVG/1.1/DTD/svg11.dtd">
<svg version="1.1" id="Layer_1" xmlns="http://www.w3.org/2000/svg" xmlns:xlink="http://www.w3.org/1999/xlink" x="0px" y="0px"
	 width="738.606px" height="35.623px" viewBox="0 0 738.606 35.623" enable-background="new 0 0 738.606 35.623"
	 xml:space="preserve">
<path fill-rule="evenodd" clip-rule="evenodd" fill="#7DCCE3" d="M747.698,6.829c0,0-11.46-4.211-39.367-6.696
	c-21.948-1.955-56.457,18.316-95.504,12.556c-34.744-5.127-42.646-7.039-79.809-0.514c-45.445,7.979-61.847-2.024-93.138-3.478
	c-14.575-0.677-38.395,5.743-61.895,4.711c-20.969-0.92-42.982,2.133-65.916,0.625c-23.67-1.558-35.204-8.703-57.977-3.556
	c-45.819,10.358-61.357-0.373-74.35,0.329c-32.626,1.762-37.821,11.595-69.669,0.159c-20.905-7.506-37.056,1.497-61.96,2.184
	C22.759,13.848-8.53,6.829-8.53,6.829v48.37h756.228V6.829z"/>
<path fill-rule="evenodd" clip-rule="evenodd" fill="#3A7D90" d="M753.698,12.266c0,0-17.479-4.227-45.577-6.722
	c-22.098-1.963-56.845,18.387-96.156,12.604c-34.982-5.147-42.94-7.066-80.358-0.516c-45.757,8.009-62.271-2.033-93.777-3.492
	c-14.676-0.68-38.657,5.765-62.318,4.729c-21.113-0.924-43.276,2.141-66.368,0.627c-23.833-1.564-35.445-8.738-58.374-3.569
	c-46.134,10.397-61.779-0.375-74.861,0.33c-32.85,1.769-38.081,11.64-70.147,0.16c-21.048-7.536-37.31,1.502-62.385,2.193
	C17.846,19.312-6.53,12.266-6.53,12.266v43.559h760.228V12.266z"/>
</svg>
