<?xml version="1.0" encoding="utf-8"?>
<!-- Generator: Adobe Illustrator 16.0.0, SVG Export Plug-In . SVG Version: 6.00 Build 0)  -->
<!DOCTYPE svg PUBLIC "-//W3C//DTD SVG 1.1//EN" "http://www.w3.org/Graphics/SVG/1.1/DTD/svg11.dtd">
<svg version="1.1" id="Layer_1" xmlns="http://www.w3.org/2000/svg" xmlns:xlink="http://www.w3.org/1999/xlink" x="0px" y="0px"
	 width="641.892px" height="26.411px" viewBox="0 0 641.892 26.411" enable-background="new 0 0 641.892 26.411"
	 xml:space="preserve">
<path fill-rule="evenodd" clip-rule="evenodd" fill="#195B77" d="M641.892,0.911c0,0-32.658,5.619-74.615-0.554
	c-12.58-1.851-45.339,9.087-56.963,8.95c-15.671-0.185-37.806-7.04-55.943-3.865c-19.16,3.354-33.363-4.204-46.985-3.552
	c-13.846,0.663-27.061,9.505-40.47,8.884c-12.392-0.575-33.561-9.852-53.538-10.727c-17.827-0.781-27.345,8.247-46.842,6.969
	c-20.123-1.32-22.572-3.697-41.932,0.666c-13.608,3.067-37.921-7.208-37.921-7.208s-26.376,12.619-33.562,13.007
	c-27.736,1.492-31.233,0.628-58.309-9.065C77.04-1.946,58.711,5.685,37.54,6.268C15.984,6.86,0,0.911,0,0.911v25.5h641.892V0.911z"
	/>
</svg>
